<?xml version="1.0" encoding="UTF-8"?>
<!-- Generated by jsxcad -->
<!DOCTYPE svg PUBLIC "-//W3C//DTD SVG 1.1 Tiny//EN" "http://www.w3.org/Graphics/SVG/1.1/DTD/svg11-tiny.dtd">
<svg viewBox="-250 -250 500 500" width="500" height="500" xmlns="http://www.w3.org/2000/svg"><path d="M31.16283837706377,94.65611244489402L31.09463366239266,92.17029714287513L31.120042204137306,93.09634664217145z" style="fill:rgb(127,127,127)"/><path d="M31.78263281715224,94.50431554828512L31.120042204137306,93.09634664217145L31.13028687103913,93.11812306881997z" style="fill:rgb(104,220,211)"/><path d="M31.78263281715224,94.50431554828512L31.13028687103913,93.11812306881997L31.71731070785324,94.36551336307956z" style="fill:rgb(5,108,159)"/><path d="M34.30495038352323,91.4228539666031L34.38001921479494,93.9011751751143L34.33390309076986,92.37869520051014z" style="fill:rgb(0,127,127)"/><path d="M34.324126354079326,92.37526420689207L33.759216360968644,94.04532632749626L34.26769669637105,92.54209156416297z" style="fill:rgb(21,192,156)"/><path d="M34.38001921479494,93.9011751751143L31.78263281715224,94.50431554828512L31.980206080531524,94.45843874908104z" style="fill:rgb(133,26,205)"/><path d="M27.28982353422022,93.0561463383815L64.34905219391477,84.42784999021553L64.26566255683053,84.44726458358215z" style="fill:rgb(128,36,216)"/><path d="M32.6993831209359,91.80450625676856L23.768120743920996,74.95309924595095L31.287259689387504,92.98670283225937zM31.13028687103913,93.11812306881997L31.287259689387504,92.98670283225937L23.768120743920996,74.95309924595095z" style="fill:rgb(197,72,218)"/><path d="M32.6993831209359,91.80450625676856L32.86167983392878,91.86152305354365L25.410604973454817,75.51300189497472zM34.324126354079326,92.37526420689207L25.410604973454817,75.51300189497472L32.86167983392878,91.86152305354365z" style="fill:rgb(57,36,182)"/><path d="M31.13028687103913,93.11812306881997L22.167170308698314,76.28247831181994L31.71731070785324,94.36551336307956zM31.78263281715224,94.50431554828512L31.71731070785324,94.36551336307956L22.167170308698314,76.28247831181994z" style="fill:rgb(241,184,128)"/><path d="M62.62282221740516,84.82976088417448L62.80381794125367,84.89100450386925L62.636643217336115,84.83443460750813z" style="fill:rgb(46,122,226)"/><path d="M62.62282221740516,84.82976088417448L63.65536573921253,85.17918279793327L62.80381794125367,84.89100450386925z" style="fill:rgb(48,60,201)"/><path d="M64.31022973789437,85.40079505065492L62.80381794125367,84.89100450386925L63.65536573921253,85.17918279793327z" style="fill:rgb(63,26,171)"/><path d="M68.1398856623141,83.54524539622993L67.95662455996184,80.52048558657076L67.02458898083694,81.26185060866264z" style="fill:rgb(247,158,158)"/><path d="M64.31022973789437,85.40079505065492L63.77735700478626,87.07472475699366L64.25700043732807,85.56800683739152z" style="fill:rgb(249,95,146)"/><path d="M64.4073285832115,86.9284367636184L61.39434590645049,87.6280892293628L61.77159042855373,87.5404906629149z" style="fill:rgb(127,37,217)"/><path d="M64.4073285832115,86.9284367636184L61.77159042855373,87.5404906629149L61.97208243251332,87.4939373251945z" style="fill:rgb(84,226,194)"/><path d="M65.06244334998959,74.57871155855456L67.02458898083694,81.26185060866264L67.95662455996184,80.52048558657076zM68.2907083912753,86.03461140669818L68.1398856623141,83.54524539622993L67.02458898083694,81.26185060866264z" style="fill:rgb(247,158,158)"/><path d="M24.220465677973888,89.72258780929026L24.331004085466773,94.88356880147116L24.390355969648656,97.65467335803703z" style="fill:rgb(0,127,127)"/><path d="M31.13028687103913,93.11812306881997L23.768120743920996,74.95309924595095L22.167170308698314,76.28247831181994z" style="fill:rgb(197,72,218)"/><path d="M32.6993831209359,91.80450625676856L25.410604973454817,75.51300189497472L23.768120743920996,74.95309924595095z" style="fill:rgb(57,36,182)"/><path d="M68.2907083912753,86.03461140669818L67.02458898083694,81.26185060866264L66.25418978616752,81.87463804764268zM65.06244334998959,74.57871155855456L65.23898736757127,77.6061009390091L67.02458898083694,81.26185060866264z" style="fill:rgb(247,158,158)"/><path d="M44.740983151650205,101.11622406721067L46.63530307130972,99.06866629628685L46.12116956935684,99.62438898971227z" style="fill:rgb(222,46,153)"/><path d="M31.78263281715224,94.50431554828512L22.167170308698314,76.28247831181994L22.817457678327436,77.66767234713078z" style="fill:rgb(241,184,128)"/><path d="M62.636643217336115,84.83443460750813L54.17381945679362,67.73254808736579L61.226096941417715,86.02252976192872zM61.06929904900271,86.15459835414799L61.226096941417715,86.02252976192872L54.17381945679362,67.73254808736579z" style="fill:rgb(197,72,218)"/><path d="M62.636643217336115,84.83443460750813L62.80381794125367,84.89100450386925L55.86674100040658,68.28757781284052zM64.31022973789437,85.40079505065492L55.86674100040658,68.28757781284052L62.80381794125367,84.89100450386925z" style="fill:rgb(57,36,182)"/><path d="M44.27190117751849,102.86169838770374L44.740983151650205,101.11622406721067L44.28050350950464,102.82968287579973z" style="fill:rgb(129,208,225)"/><path d="M67.02458898083694,81.26185060866264L65.23898736757127,77.6061009390091L65.3842868878163,80.09770745505259zM67.02458898083694,81.26185060866264L65.3842868878163,80.09770745505259L66.25418978616752,81.87463804764268z" style="fill:rgb(247,158,158)"/><path d="M48.05247641363751,98.7503663714704L43.13252069334728,93.7331342765683L46.12116956935684,99.62438898971227z" style="fill:rgb(158,48,222)"/><path d="M65.52187826217911,82.4571341368173L68.2907083912753,86.03461140669818L66.25418978616752,81.87463804764268zM65.52187826217911,82.4571341368173L68.60359014442605,91.19877723167055L68.2907083912753,86.03461140669818z" style="fill:rgb(247,158,158)"/><path d="M50.02151205645596,98.7267332970367L45.0766149758486,92.8799003054816L48.05247641363751,98.7503663714704z" style="fill:rgb(96,32,206)"/><path d="M41.68041152551899,95.25804906570806L44.740983151650205,101.11622406721067L46.12116956935684,99.62438898971227z" style="fill:rgb(212,85,213)"/><path d="M46.99297631199563,92.85200839844896L50.02151205645596,98.7267332970367L50.76202299388538,99.1439599363316z" style="fill:rgb(42,41,169)"/><path d="M44.740983151650205,101.11622406721067L41.22791101921685,96.92052559166963L44.28050350950464,102.82968287579973z" style="fill:rgb(243,133,180)"/><path d="M46.99297631199563,92.85200839844896L50.76202299388538,99.1439599363316L51.503553342658414,99.56176710370063z" style="fill:rgb(42,41,169)"/><path d="M43.07125512056046,93.76088032317448L46.12116956935684,99.62438898971227L43.13252069334728,93.7331342765683z" style="fill:rgb(158,48,222)"/><path d="M59.59733685168761,63.358802303646726L65.23898736757127,77.6061009390091L65.06244334998959,74.57871155855456z" style="fill:rgb(247,158,158)"/><path d="M43.02742483814261,93.80806426908408L46.12116956935684,99.62438898971227L43.07125512056046,93.76088032317448z" style="fill:rgb(212,85,213)"/><path d="M48.05247641363751,98.7503663714704L45.01427358705124,92.88080832814258L43.13252069334728,93.7331342765683z" style="fill:rgb(158,48,222)"/><path d="M45.01427358705124,92.88080832814258L48.05247641363751,98.7503663714704L45.0766149758486,92.8799003054816z" style="fill:rgb(96,32,206)"/><path d="M41.68041152551899,95.25804906570806L46.12116956935684,99.62438898971227L43.02742483814261,93.80806426908408z" style="fill:rgb(212,85,213)"/><path d="M65.3842868878163,80.09770745505259L65.52187826217911,82.4571341368173L66.25418978616752,81.87463804764268zM65.68572194563546,85.26673728364068L68.60406907187715,91.20668202154279L68.60359014442605,91.19877723167055z" style="fill:rgb(247,158,158)"/><path d="M50.02151205645596,98.7267332970367L46.99297631199563,92.85200839844896L45.0766149758486,92.8799003054816z" style="fill:rgb(96,32,206)"/><path d="M18.39518173783939,83.81154807924605L18.2219113169806,73.21546952595507L18.271425689719322,76.24344268176596z" style="fill:rgb(127,127,127)"/><path d="M44.28050350950464,102.82968287579973L41.77913656023278,98.40623269854443L44.865989292883455,104.30761862235605z" style="fill:rgb(243,180,133)"/><path d="M44.740983151650205,101.11622406721067L41.68041152551899,95.25804906570806L41.22791101921685,96.92052559166963z" style="fill:rgb(243,133,180)"/><path d="M44.394908883329215,106.04018872851935L46.897045918638874,105.46801065932092L48.285348957335266,105.1505354105249zM44.394908883329215,106.04018872851935L48.285348957335266,105.1505354105249L49.74780768264188,104.81610219101067z" style="fill:rgb(127,37,217)"/><path d="M52.16307872637712,102.19474262603903L49.74780768264188,104.81610219101067L50.26414852321987,104.2557061639266z" style="fill:rgb(221,61,182)"/><path d="M46.99297631199563,92.85200839844896L51.503553342658414,99.56176710370063L48.433134250559576,93.6578691740358z" style="fill:rgb(42,41,169)"/><path d="M65.52187826217911,82.4571341368173L65.68572194563546,85.26673728364068L68.60359014442605,91.19877723167055z" style="fill:rgb(247,158,158)"/><path d="M41.213157613160355,96.974726212644L44.28050350950464,102.82968287579973L41.22791101921685,96.92052559166963z" style="fill:rgb(243,133,180)"/><path d="M68.60406907187715,91.20668202154279L65.85069614612182,88.04867207654084L68.77159144223975,93.97167102677989z" style="fill:rgb(247,158,158)"/><path d="M48.433134250559576,93.6578691740358L51.503553342658414,99.56176710370063L48.48008759534377,93.68414910158144z" style="fill:rgb(42,41,169)"/><path d="M18.39518173783939,83.81154807924605L18.271425689719322,76.24344268176596L18.312177115655025,78.7355316848005z" style="fill:rgb(127,127,127)"/><path d="M44.28050350950464,102.82968287579973L41.213157613160355,96.974726212644L41.77913656023278,98.40623269854443z" style="fill:rgb(243,180,133)"/><path d="M61.06929904900271,86.15459835414799L54.17381945679362,67.73254808736579L52.574625359036126,69.06860334262265z" style="fill:rgb(197,72,218)"/><path d="M62.636643217336115,84.83443460750813L55.86674100040658,68.28757781284052L54.17381945679362,67.73254808736579z" style="fill:rgb(57,36,182)"/><path d="M65.68572194563546,85.26673728364068L65.6892886416734,85.28096003676085L68.60406907187715,91.20668202154279z" style="fill:rgb(247,158,158)"/><path d="M44.394908883329215,106.04018872851935L52.25650298342795,104.24242530049179L69.14976891922414,100.3793125522447z" style="fill:rgb(114,66,238)"/><path d="M65.23898736757127,77.6061009390091L59.895584111780614,68.88600490314309L65.3842868878163,80.09770745505259z" style="fill:rgb(247,158,158)"/><path d="M41.797593917476185,98.4529098213748L44.865989292883455,104.30761862235605L41.77913656023278,98.40623269854443z" style="fill:rgb(243,180,133)"/><path d="M68.60406907187715,91.20668202154279L65.6892886416734,85.28096003676085L65.85069614612182,88.04867207654084z" style="fill:rgb(247,158,158)"/><path d="M65.52187826217911,82.4571341368173L65.68618336556416,85.27464974542336L65.68572194563546,85.26673728364068z" style="fill:rgb(127,127,127)"/><path d="M33.39751825454232,116.46267460977597L33.57715464249069,116.52908052979426L33.41123544539662,116.46774195003971z" style="fill:rgb(45,107,222)"/><path d="M59.895584111780614,68.88600490314309L65.52187826217911,82.4571341368173L65.3842868878163,80.09770745505259zM59.59733685168761,63.358802303646726L59.760933585261256,66.39062146797784L65.23898736757127,77.6061009390091zM65.68572194563546,85.26673728364068L65.68618336556416,85.27464974542336L65.6892886416734,85.28096003676085zM65.6892886416734,85.28096003676085L65.68618336556416,85.27464974542336L65.8475843076193,88.04236458881695z" style="fill:rgb(247,158,158)"/><path d="M43.13252069334728,93.7331342765683L37.31137665798932,82.68741940164196L43.07125512056046,93.76088032317448z" style="fill:rgb(158,48,222)"/><path d="M43.07125512056046,93.76088032317448L37.18441241279091,82.82301972539008L43.02742483814261,93.80806426908408z" style="fill:rgb(212,85,213)"/><path d="M31.808285129031784,117.82105100096646L32.40904507775594,119.12965807559031L32.376061729970736,119.05780645829869z" style="fill:rgb(6,117,166)"/><path d="M77.01805004476562,101.4342810813009L76.21021313713001,89.4501442522041L73.33752356714064,83.50242783578713z" style="fill:rgb(247,158,158)"/><path d="M43.13252069334728,93.7331342765683L45.01427358705124,92.88080832814258L39.27649097595918,81.79590238940109z" style="fill:rgb(158,48,222)"/><path d="M45.0766149758486,92.8799003054816L39.27649097595918,81.79590238940109L45.01427358705124,92.88080832814258z" style="fill:rgb(96,32,206)"/><path d="M35.072283004220694,117.08177941217433L34.49596070292408,118.81853758772613L35.01471471133228,117.25526520973989z" style="fill:rgb(21,192,156)"/><path d="M43.02742483814261,93.80806426908408L35.900336826274255,84.19451950196924L41.68041152551899,95.25804906570806z" style="fill:rgb(212,85,213)"/><path d="M65.6892886416734,85.28096003676085L65.8475843076193,88.04236458881695L65.85069614612182,88.04867207654084zM65.23898736757127,77.6061009390091L59.760933585261256,66.39062146797784L59.895584111780614,68.88600490314309z" style="fill:rgb(247,158,158)"/><path d="M32.47589785112103,119.2752760068185L32.376061729970736,119.05780645829869L32.40904507775594,119.12965807559031z" style="fill:rgb(6,117,166)"/><path d="M45.0766149758486,92.8799003054816L46.99297631199563,92.85200839844896L41.27337433877115,81.75716709510296z" style="fill:rgb(96,32,206)"/><path d="M66.22463185634825,94.46068105241838L69.15967397503535,100.37704801602462L68.77159144223975,93.97167102677989z" style="fill:rgb(247,158,158)"/><path d="M35.130428296905265,118.6750836309545L32.47589785112103,119.2752760068185L32.677815250477614,119.22962461368067z" style="fill:rgb(127,37,217)"/><path d="M41.22791101921685,96.92052559166963L41.68041152551899,95.25804906570806L35.900336826274255,84.19451950196924z" style="fill:rgb(243,133,180)"/><path d="M66.22463185634825,94.46068105241838L68.77159144223975,93.97167102677989L65.85069614612182,88.04867207654084zM65.52187826217911,82.4571341368173L63.777506990895546,83.8446506767507L65.8475843076193,88.04236458881695z" style="fill:rgb(247,158,158)"/><path d="M48.433134250559576,93.6578691740358L41.27337433877115,81.75716709510296L46.99297631199563,92.85200839844896z" style="fill:rgb(42,41,169)"/><path d="M41.22791101921685,96.92052559166963L35.42015748768058,85.91702321652991L41.213157613160355,96.974726212644z" style="fill:rgb(243,133,180)"/><path d="M48.48008759534377,93.68414910158144L42.63501095306503,82.5090765871246L48.433134250559576,93.6578691740358z" style="fill:rgb(42,41,169)"/><path d="M41.77913656023278,98.40623269854443L41.213157613160355,96.974726212644L35.42015748768058,85.91702321652991z" style="fill:rgb(243,180,133)"/><path d="M59.895584111780614,68.88600490314309L63.777506990895546,83.8446506767507L65.52187826217911,82.4571341368173z" style="fill:rgb(247,158,158)"/><path d="M73.33752356714064,83.50242783578713L65.6892886416734,85.28096003676085L66.38868418799439,97.27374488735336z" style="fill:rgb(83,212,212)"/><path d="M66.22150483473864,94.45438040471058L65.85069614612182,88.04867207654084L65.8475843076193,88.04236458881695z" style="fill:rgb(247,158,158)"/><path d="M41.77913656023278,98.40623269854443L36.00245252216813,87.3953791113112L41.797593917476185,98.4529098213748z" style="fill:rgb(243,180,133)"/><path d="M66.22463185634825,94.46068105241838L69.32992413228523,103.18705966949427L69.15967397503535,100.37704801602462z" style="fill:rgb(247,158,158)"/><path d="M43.13252069334728,93.7331342765683L37.48828698391156,82.60715839640041L37.31137665798932,82.68741940164196z" style="fill:rgb(158,48,222)"/><path d="M43.07125512056046,93.76088032317448L37.31137665798932,82.68741940164196L37.18441241279091,82.82301972539008z" style="fill:rgb(212,85,213)"/><path d="M43.13252069334728,93.7331342765683L39.27649097595918,81.79590238940109L37.48828698391156,82.60715839640041z" style="fill:rgb(158,48,222)"/><path d="M45.0766149758486,92.8799003054816L39.45613680100418,81.79241185711582L39.27649097595918,81.79590238940109z" style="fill:rgb(96,32,206)"/><path d="M43.02742483814261,93.80806426908408L37.18441241279091,82.82301972539008L35.900336826274255,84.19451950196924z" style="fill:rgb(212,85,213)"/><path d="M45.0766149758486,92.8799003054816L41.27337433877115,81.75716709510296L39.45613680100418,81.79241185711582z" style="fill:rgb(96,32,206)"/><path d="M55.56596658450729,55.08236789491617L59.760933585261256,66.39062146797784L59.59733685168761,63.358802303646726z" style="fill:rgb(247,158,158)"/><path d="M33.41123544539662,116.46774195003971L24.294927418774165,99.69014199807634L31.968646314829993,117.68566647151809zM31.808285129031784,117.82105100096646L31.968646314829993,117.68566647151809L24.294927418774165,99.69014199807634z" style="fill:rgb(197,72,218)"/><path d="M66.22150483473864,94.45438040471058L66.22463185634825,94.46068105241838L65.85069614612182,88.04867207654084z" style="fill:rgb(247,158,158)"/><path d="M33.41123544539662,116.46774195003971L33.57715464249069,116.52908052979426L25.974533393324112,100.29396335184992z" style="fill:rgb(57,36,182)"/><path d="M66.38868418799439,97.27374488735336L69.33041325465467,103.19513272845835L69.32992413228523,103.18705966949427z" style="fill:rgb(247,158,158)"/><path d="M41.22791101921685,96.92052559166963L35.900336826274255,84.19451950196924L35.46344267952965,85.76176082753639z" style="fill:rgb(243,133,180)"/><path d="M35.072283004220694,117.08177941217433L25.974533393324112,100.29396335184992L33.57715464249069,116.52908052979426z" style="fill:rgb(57,36,182)"/><path d="M31.808285129031784,117.82105100096646L22.65871780229484,101.06032577679811L32.40904507775594,119.12965807559031z" style="fill:rgb(241,184,128)"/><path d="M73.33752356714064,83.50242783578713L74.11981781686308,95.49878430866761L77.01805004476562,101.4342810813009z" style="fill:rgb(247,158,158)"/><path d="M48.433134250559576,93.6578691740358L42.63501095306503,82.5090765871246L41.27337433877115,81.75716709510296z" style="fill:rgb(42,41,169)"/><path d="M41.22791101921685,96.92052559166963L35.46344267952965,85.76176082753639L35.42015748768058,85.91702321652991z" style="fill:rgb(243,133,180)"/><path d="M66.38868418799439,97.27374488735336L69.32992413228523,103.18705966949427L77.01805004476562,101.4342810813009z" style="fill:rgb(127,37,217)"/><path d="M32.47589785112103,119.2752760068185L32.40904507775594,119.12965807559031L22.65871780229484,101.06032577679811z" style="fill:rgb(241,184,128)"/><path d="M48.48008759534377,93.68414910158144L42.76991978338367,82.583578046921L42.63501095306503,82.5090765871246z" style="fill:rgb(42,41,169)"/><path d="M55.56596658450729,55.08236789491617L59.895584111780614,68.88600490314309L59.760933585261256,66.39062146797784z" style="fill:rgb(247,158,158)"/><path d="M62.399707450547275,110.89826506214683L64.02368139032365,109.51852733704283L64.0104443456527,109.52977039571228z" style="fill:rgb(64,225,179)"/><path d="M69.79395184670597,110.84592651647996L35.13067569797117,118.68325130032296L62.48636696658338,112.49816929440637z" style="fill:rgb(97,119,251)"/><path d="M66.22463185634825,94.46068105241838L66.38868418799439,97.27374488735336L69.32992413228523,103.18705966949427zM69.63642375026878,108.24589492832881L69.33041325465467,103.19513272845835L66.38915551155605,97.28182684054802z" style="fill:rgb(247,158,158)"/><path d="M41.77913656023278,98.40623269854443L35.42015748768058,85.91702321652991L35.94994988718092,87.26208569259917z" style="fill:rgb(243,180,133)"/><path d="M66.38868418799439,97.27374488735336L74.11981781686308,95.49878430866761L73.33752356714064,83.50242783578713z" style="fill:rgb(83,212,212)"/><path d="M41.77913656023278,98.40623269854443L35.94994988718092,87.26208569259917L36.00245252216813,87.3953791113112z" style="fill:rgb(243,180,133)"/><path d="M66.38868418799439,97.27374488735336L66.38915551155605,97.28182684054802L69.33041325465467,103.19513272845835zM66.38602181860556,97.27552935490226L66.22463185634825,94.46068105241838L66.22150483473864,94.45438040471058zM65.8475843076193,88.04236458881695L63.777506990895546,83.8446506767507L61.7558745540317,85.45270603679855z" style="fill:rgb(247,158,158)"/><path d="M70.003930546422,114.31166541924323L24.825685103421844,117.97993451584748L28.02875564205415,123.76637536309356z" style="fill:rgb(127,37,217)"/><path d="M59.895584111780614,68.88600490314309L60.324974547107374,76.84359561764218L63.777506990895546,83.8446506767507z" style="fill:rgb(247,158,158)"/><path d="M65.72251386144622,110.13967061258907L65.17966716759194,111.8809314191224L65.23401199754106,111.70661255969381z" style="fill:rgb(6,166,117)"/><path d="M65.8475843076193,88.04236458881695L61.7558745540317,85.45270603679855L66.22150483473864,94.45438040471058z" style="fill:rgb(247,158,158)"/><path d="M39.047099076746846,72.6604139413133L55.56596658450729,55.08236789491617L13.884979216067272,65.10568670871122z" style="fill:rgb(83,212,212)"/><path d="M77.01805004476562,101.4342810813009L74.11981781686308,95.49878430866761L66.38868418799439,97.27374488735336z" style="fill:rgb(127,37,217)"/><path d="M66.38602181860556,97.27552935490226L66.38868418799439,97.27374488735336L66.22463185634825,94.46068105241838zM69.63642375026878,108.24589492832881L66.38915551155605,97.28182684054802L66.38602181860556,97.27552935490226z" style="fill:rgb(247,158,158)"/><path d="M69.79395184670597,110.84592651647996L63.12912126747347,112.3445620820767L65.82417916628913,111.74349186050465zM39.047099076746846,72.6604139413133L13.884979216067272,65.10568670871122L14.054197706975437,78.58739411681631z" style="fill:rgb(83,212,212)"/><path d="M55.56596658450729,55.08236789491617L60.324974547107374,76.84359561764218L59.895584111780614,68.88600490314309zM66.38602181860556,97.27552935490226L66.38915551155605,97.28182684054802L66.38868418799439,97.27374488735336zM69.63642375026878,108.24589492832881L66.38602181860556,97.27552935490226L66.68089308616004,102.33200284080014zM66.68089308616004,102.33200284080014L69.79395184670597,110.84592651647996L69.63642375026878,108.24589492832881z" style="fill:rgb(247,158,158)"/><path d="M37.48828698391156,82.60715839640041L33.061979688413864,74.51788349486927L37.31137665798932,82.68741940164196zM39.27649097595918,81.79590238940109L33.32416206732255,74.39880060507794L37.48828698391156,82.60715839640041z" style="fill:rgb(158,48,222)"/><path d="M37.31137665798932,82.68741940164196L32.873386070595394,74.71816114197985L37.18441241279091,82.82301972539008z" style="fill:rgb(212,85,213)"/><path d="M39.45613680100418,81.79241185711582L35.04339340768853,73.61790561357742L39.27649097595918,81.79590238940109zM41.27337433877115,81.75716709510296L35.30920851450552,73.6117965626338L39.45613680100418,81.79241185711582z" style="fill:rgb(96,32,206)"/><path d="M31.808285129031784,117.82105100096646L24.294927418774165,99.69014199807634L22.65871780229484,101.06032577679811z" style="fill:rgb(197,72,218)"/><path d="M37.18441241279091,82.82301972539008L31.635981453036436,76.0322044360841L35.900336826274255,84.19451950196924z" style="fill:rgb(212,85,213)"/><path d="M33.41123544539662,116.46774195003971L25.974533393324112,100.29396335184992L24.294927418774165,99.69014199807634z" style="fill:rgb(57,36,182)"/><path d="M42.63501095306503,82.5090765871246L37.05360951816851,73.57171211349385L41.27337433877115,81.75716709510296z" style="fill:rgb(42,41,169)"/><path d="M35.900336826274255,84.19451950196924L31.21105085808752,77.53005783045337L35.46344267952965,85.76176082753639z" style="fill:rgb(243,133,180)"/><path d="M32.47589785112103,119.2752760068185L22.65871780229484,101.06032577679811L23.324212863341955,102.51487366069914z" style="fill:rgb(241,184,128)"/><path d="M64.0104443456527,109.52977039571228L55.38372093634219,92.49724729675363L62.56950830200106,110.75400407859077z" style="fill:rgb(197,72,218)"/><path d="M66.68089308616004,102.33200284080014L66.22150483473864,94.45438040471058L61.7558745540317,85.45270603679855zM63.777506990895546,83.8446506767507L60.324974547107374,76.84359561764218L60.67158147026482,83.26701776769505z" style="fill:rgb(247,158,158)"/><path d="M35.46344267952965,85.76176082753639L31.14615697149922,77.75880238616655L35.42015748768058,85.91702321652991z" style="fill:rgb(243,133,180)"/><path d="M62.40933069693789,110.89009126019586L62.56950830200106,110.75400407859077L55.38372093634219,92.49724729675363z" style="fill:rgb(197,72,218)"/><path d="M64.0104443456527,109.52977039571228L64.18145854483245,109.59068808141262L57.116052281362805,93.09645788250228z" style="fill:rgb(57,36,182)"/><path d="M70.003930546422,114.31166541924323L56.897863011369516,110.7045663678509L24.825685103421844,117.97993451584748z" style="fill:rgb(127,37,217)"/><path d="M42.76991978338367,82.583578046921L38.357806705770045,74.28474439886439L42.63501095306503,82.5090765871246z" style="fill:rgb(42,41,169)"/><path d="M66.83269333305428,104.93508428016646L70.003930546422,114.31166541924323L69.79395184670597,110.84592651647996z" style="fill:rgb(247,158,158)"/><path d="M65.72251386144622,110.13967061258907L57.116052281362805,93.09645788250228L64.18145854483245,109.59068808141262z" style="fill:rgb(57,36,182)"/><path d="M62.40933069693789,110.89009126019586L53.74935264845429,93.87458077589986L63.05704273778033,112.19891001886015z" style="fill:rgb(241,184,128)"/><path d="M66.68089308616004,102.33200284080014L66.83269333305428,104.93508428016646L69.79395184670597,110.84592651647996z" style="fill:rgb(247,158,158)"/><path d="M37.48828698391156,82.60715839640041L33.32416206732255,74.39880060507794L33.061979688413864,74.51788349486927z" style="fill:rgb(158,48,222)"/><path d="M37.31137665798932,82.68741940164196L33.061979688413864,74.51788349486927L32.873386070595394,74.71816114197985z" style="fill:rgb(212,85,213)"/><path d="M35.42015748768058,85.91702321652991L31.64980204153253,79.04113259183259L35.94994988718092,87.26208569259917z" style="fill:rgb(243,180,133)"/><path d="M39.27649097595918,81.79590238940109L35.04339340768853,73.61790561357742L33.32416206732255,74.39880060507794z" style="fill:rgb(158,48,222)"/><path d="M39.45613680100418,81.79241185711582L35.30920851450552,73.6117965626338L35.04339340768853,73.61790561357742z" style="fill:rgb(96,32,206)"/><path d="M63.777506990895546,83.8446506767507L60.67158147026482,83.26701776769505L61.7558745540317,85.45270603679855z" style="fill:rgb(247,158,158)"/><path d="M37.18441241279091,82.82301972539008L32.873386070595394,74.71816114197985L31.635981453036436,76.0322044360841z" style="fill:rgb(212,85,213)"/><path d="M63.12912126747347,112.3445620820767L63.05704273778033,112.19891001886015L53.74935264845429,93.87458077589986z" style="fill:rgb(241,184,128)"/><path d="M35.94994988718092,87.26208569259917L31.726736950580683,79.23701743215446L36.00245252216813,87.3953791113112z" style="fill:rgb(243,180,133)"/><path d="M41.27337433877115,81.75716709510296L37.05360951816851,73.57171211349385L35.30920851450552,73.6117965626338z" style="fill:rgb(96,32,206)"/><path d="M35.900336826274255,84.19451950196924L31.635981453036436,76.0322044360841L31.21105085808752,77.53005783045337z" style="fill:rgb(243,133,180)"/><path d="M31.047023315823072,74.55760116148554L14.054197706975437,78.58739411681631L14.134801574632968,85.0091395886822z" style="fill:rgb(83,212,212)"/><path d="M55.56596658450729,55.08236789491617L56.25019519189334,68.58074797194905L60.324974547107374,76.84359561764218z" style="fill:rgb(247,158,158)"/><path d="M42.63501095306503,82.5090765871246L37.8047765722926,73.9823889303282L37.05360951816851,73.57171211349385z" style="fill:rgb(42,41,169)"/><path d="M35.46344267952965,85.76176082753639L31.21105085808752,77.53005783045337L31.14615697149922,77.75880238616655z" style="fill:rgb(243,133,180)"/><path d="M42.63501095306503,82.5090765871246L38.357806705770045,74.28474439886439L37.8047765722926,73.9823889303282zM42.76991978338367,82.583578046921L38.55699712507043,74.39365237308124L38.357806705770045,74.28474439886439z" style="fill:rgb(42,41,169)"/><path d="M35.42015748768058,85.91702321652991L31.14615697149922,77.75880238616655L31.64980204153253,79.04113259183259z" style="fill:rgb(243,180,133)"/><path d="M55.56596658450729,55.08236789491617L39.047099076746846,72.6604139413133L56.25019519189334,68.58074797194905z" style="fill:rgb(83,212,212)"/><path d="M66.83269333305428,104.93508428016646L67.03504380360953,108.40500455319713L70.003930546422,114.31166541924323z" style="fill:rgb(247,158,158)"/><path d="M33.59316986869008,73.9537961945826L32.126974152298814,74.3014937803541L31.635981453036436,76.0322044360841zM35.04339340768853,73.61790561357742L33.59316986869008,73.9537961945826L33.061979688413864,74.51788349486927zM35.04339340768853,73.61790561357742L35.005912838570495,73.61876509167448L33.59316986869008,73.9537961945826z" style="fill:rgb(83,212,212)"/><path d="M56.897863011369516,110.7045663678509L70.003930546422,114.31166541924323L67.03504380360953,108.40500455319713z" style="fill:rgb(127,37,217)"/><path d="M35.04339340768853,73.61790561357742L33.061979688413864,74.51788349486927L33.32416206732255,74.39880060507794z" style="fill:rgb(109,150,251)"/><path d="M39.047099076746846,72.6604139413133L32.126974152298814,74.3014937803541L33.59316986869008,73.9537961945826z" style="fill:rgb(87,166,242)"/><path d="M32.126974152298814,74.3014937803541L31.047023315823072,74.55760116148554L31.137004018653368,77.79106436079094z" style="fill:rgb(83,212,212)"/><path d="M33.59316986869008,73.9537961945826L31.635981453036436,76.0322044360841L32.873386070595394,74.71816114197985z" style="fill:rgb(221,44,149)"/><path d="M24.825685103421844,117.97993451584748L56.897863011369516,110.7045663678509L32.311729567086154,103.93786593456956z" style="fill:rgb(127,37,217)"/><path d="M38.215808309420865,73.54500589090168L35.005912838570495,73.61876509167448L35.04339340768853,73.61790561357742z" style="fill:rgb(74,129,243)"/><path d="M35.94994988718092,87.26208569259917L31.64980204153253,79.04113259183259L31.726736950580683,79.23701743215446z" style="fill:rgb(243,180,133)"/><path d="M38.215808309420865,73.54500589090168L39.047099076746846,72.6604139413133L35.005912838570495,73.61876509167448z" style="fill:rgb(83,212,212)"/><path d="M38.215808309420865,73.54500589090168L35.30920851450552,73.6117965626338L37.05360951816851,73.57171211349385z" style="fill:rgb(102,22,195)"/><path d="M66.68089308616004,102.33200284080014L61.7558745540317,85.45270603679855L60.82929061016552,86.18973025501563z" style="fill:rgb(247,158,158)"/><path d="M32.126974152298814,74.3014937803541L31.14615697149922,77.75880238616655L31.21105085808752,77.53005783045337z" style="fill:rgb(6,168,129)"/><path d="M32.126974152298814,74.3014937803541L31.137004018653368,77.79106436079094L31.14615697149922,77.75880238616655z" style="fill:rgb(134,207,226)"/><path d="M37.8047765722926,73.9823889303282L38.215808309420865,73.54500589090168L37.05360951816851,73.57171211349385zM39.07741711756966,73.52520391948417L39.047099076746846,72.6604139413133L38.215808309420865,73.54500589090168zM31.047023315823072,74.55760116148554L14.134801574632968,85.0091395886822L31.225834172186303,80.98316650120519z" style="fill:rgb(83,212,212)"/><path d="M24.825685103421844,117.97993451584748L32.311729567086154,103.93786593456956L18.775176337637618,107.04951685274955z" style="fill:rgb(127,37,217)"/><path d="M38.55699712507043,74.39365237308124L38.215808309420865,73.54500589090168L37.8047765722926,73.9823889303282z" style="fill:rgb(83,212,212)"/><path d="M61.097475728443406,91.1598162918667L66.83269333305428,104.93508428016646L66.68089308616004,102.33200284080014z" style="fill:rgb(247,158,158)"/><path d="M62.40933069693789,110.89009126019586L55.38372093634219,92.49724729675363L53.74935264845429,93.87458077589986z" style="fill:rgb(197,72,218)"/><path d="M39.14941740144637,75.86718141947316L39.07741711756966,73.52520391948417L38.215808309420865,73.54500589090168z" style="fill:rgb(83,212,212)"/><path d="M64.0104443456527,109.52977039571228L57.116052281362805,93.09645788250228L55.38372093634219,92.49724729675363z" style="fill:rgb(57,36,182)"/><path d="M61.7558745540317,85.45270603679855L60.67158147026482,83.26701776769505L60.82929061016552,86.18973025501563z" style="fill:rgb(247,158,158)"/><path d="M39.14941740144637,75.86718141947316L38.215808309420865,73.54500589090168L38.55699712507043,74.39365237308124z" style="fill:rgb(204,216,176)"/><path d="M31.14615697149922,77.75880238616655L31.137004018653368,77.79106436079094L31.225834172186303,80.98316650120519z" style="fill:rgb(83,212,212)"/><path d="M31.14615697149922,77.75880238616655L31.726736950580683,79.23701743215446L31.64980204153253,79.04113259183259z" style="fill:rgb(3,107,151)"/><path d="M39.14941740144637,75.86718141947316L39.15839119696591,75.83490370393785L39.07741711756966,73.52520391948417z" style="fill:rgb(83,212,212)"/><path d="M31.14615697149922,77.75880238616655L32.06276214009216,80.09257501835908L31.726736950580683,79.23701743215446z" style="fill:rgb(3,103,147)"/><path d="M39.14941740144637,75.86718141947316L38.55699712507043,74.39365237308124L39.07091166328108,75.6719173558109z" style="fill:rgb(158,227,200)"/><path d="M60.324974547107374,76.84359561764218L56.576174108036824,75.01162291501282L60.67158147026482,83.26701776769505z" style="fill:rgb(247,158,158)"/><path d="M63.12912126747347,112.3445620820767L53.74935264845429,93.87458077589986L54.46873387192583,95.32897514164974z" style="fill:rgb(241,184,128)"/><path d="M32.311729567086154,103.93786593456956L56.897863011369516,110.7045663678509L67.03504380360953,108.40500455319713z" style="fill:rgb(127,37,217)"/><path d="M31.14615697149922,77.75880238616655L31.225834172186303,80.98316650120519L32.06276214009216,80.09257501835908z" style="fill:rgb(83,212,212)"/><path d="M66.68089308616004,102.33200284080014L60.82929061016552,86.18973025501563L61.097475728443406,91.1598162918667z" style="fill:rgb(247,158,158)"/><path d="M31.726736950580683,79.23701743215446L32.06276214009216,80.09257501835908L32.476084759376235,79.65275636288266z" style="fill:rgb(83,212,212)"/><path d="M60.324974547107374,76.84359561764218L56.25019519189334,68.58074797194905L56.576174108036824,75.01162291501282z" style="fill:rgb(247,158,158)"/><path d="M32.06276214009216,80.09257501835908L33.02778045367764,79.9588331671939L32.476084759376235,79.65275636288266zM56.576174108036824,75.01162291501282L39.047099076746846,72.6604139413133L39.07741711756966,73.52520391948417zM38.66779519434334,77.59920265787369L39.20033652304001,77.03134966929488L39.15839119696591,75.83490370393785zM32.06276214009216,80.09257501835908L33.226489955701666,80.0690738647708L33.02778045367764,79.9588331671939zM32.06276214009216,80.09257501835908L31.225834172186303,80.98316650120519L32.31205411830219,80.72729535450715z" style="fill:rgb(83,212,212)"/><path d="M61.238223565461524,93.76819689095686L67.03504380360953,108.40500455319713L66.83269333305428,104.93508428016646z" style="fill:rgb(247,158,158)"/><path d="M32.06276214009216,80.09257501835908L33.78676613595378,80.37990859556105L33.226489955701666,80.0690738647708zM32.06276214009216,80.09257501835908L32.31205411830219,80.72729535450715L33.78676613595378,80.37990859556105z" style="fill:rgb(83,212,212)"/><path d="M31.225834172186303,80.98316650120519L35.207721221554145,80.04519260324435L33.78676613595378,80.37990859556105z" style="fill:rgb(83,211,212)"/><path d="M33.226489955701666,80.0690738647708L33.78676613595378,80.37990859556105L35.207721221554145,80.04519260324435z" style="fill:rgb(83,212,212)"/><path d="M36.70460828071203,79.69258263857674L39.20033652304001,77.03134966929488L38.66779519434334,77.59920265787369z" style="fill:rgb(77,215,204)"/><path d="M33.226489955701666,80.0690738647708L35.207721221554145,80.04519260324435L35.244914365228915,80.0283117686662zM56.576174108036824,75.01162291501282L39.07741711756966,73.52520391948417L39.15839119696591,75.83490370393785zM56.576174108036824,75.01162291501282L56.25019519189334,68.58074797194905L39.047099076746846,72.6604139413133z" style="fill:rgb(83,212,212)"/><path d="M35.207721221554145,80.04519260324435L37.23816269001482,79.12364846862937L36.974367269812234,79.24337335604402z" style="fill:rgb(100,172,243)"/><path d="M35.207721221554145,80.04519260324435L36.70460828071203,79.69258263857674L37.23816269001482,79.12364846862937zM36.70460828071203,79.69258263857674L39.27242868185622,79.08770208379732L39.20033652304001,77.03134966929488zM14.134801574632968,85.0091395886822L14.310202501512334,98.9834123927961L31.225834172186303,80.98316650120519zM56.576174108036824,75.01162291501282L39.15839119696591,75.83490370393785L39.20033652304001,77.03134966929488z" style="fill:rgb(83,212,212)"/><path d="M61.097475728443406,91.1598162918667L61.238223565461524,93.76819689095686L66.83269333305428,104.93508428016646z" style="fill:rgb(247,158,158)"/><path d="M31.225834172186303,80.98316650120519L56.576174108036824,75.01162291501282L39.27242868185622,79.08770208379732z" style="fill:rgb(86,236,178)"/><path d="M56.576174108036824,75.01162291501282L39.20033652304001,77.03134966929488L39.27242868185622,79.08770208379732z" style="fill:rgb(83,212,212)"/><path d="M32.311729567086154,103.93786593456956L14.310202501512334,98.9834123927961L18.775176337637618,107.04951685274955zM32.311729567086154,103.93786593456956L67.03504380360953,108.40500455319713L61.42585273340409,97.24540027283663z" style="fill:rgb(127,37,217)"/><path d="M61.238223565461524,93.76819689095686L61.42585273340409,97.24540027283663L67.03504380360953,108.40500455319713zM60.67158147026482,83.26701776769505L57.28566647865233,89.0084117320357L60.82929061016552,86.18973025501563z" style="fill:rgb(247,158,158)"/><path d="M60.82929061016552,86.18973025501563L61.42585273340409,97.24540027283663L61.238223565461524,93.76819689095686z" style="fill:rgb(0,127,127)"/><path d="M60.67158147026482,83.26701776769505L56.576174108036824,75.01162291501282L57.28566647865233,89.0084117320357z" style="fill:rgb(247,158,158)"/><path d="M31.225834172186303,80.98316650120519L57.28566647865233,89.0084117320357L56.576174108036824,75.01162291501282zM31.225834172186303,80.98316650120519L14.310202501512334,98.9834123927961L57.28566647865233,89.0084117320357z" style="fill:rgb(83,212,212)"/><path d="M60.82929061016552,86.18973025501563L57.28566647865233,89.0084117320357L61.42585273340409,97.24540027283663z" style="fill:rgb(247,158,158)"/><path d="M57.28566647865233,89.0084117320357L14.310202501512334,98.9834123927961L32.311729567086154,103.93786593456956zM57.28566647865233,89.0084117320357L32.311729567086154,103.93786593456956L61.42585273340409,97.24540027283663z" style="fill:rgb(127,37,217)"/><path d="M52.10028058463541,101.03528780978395L51.503553342658414,99.56176710370063L-67.10836924648193,-131.01993133803853z" style="fill:rgb(243,180,133)"/><path d="M-75.54126452130872,-125.43777491725342L44.865989292883455,104.30761862235605L46.34467283377784,105.15242219576736z" style="fill:rgb(42,41,169)"/><path d="M51.64769260555143,102.75410127365176L52.10028058463541,101.03528780978395L-66.59062084569173,-129.62307312417283z" style="fill:rgb(243,133,180)"/><path d="M-73.90558942735734,-124.77878768248468L46.34467283377784,105.15242219576736L48.32159228360703,105.1341438511959z" style="fill:rgb(96,32,206)"/><path d="M50.26414852321987,104.2557061639266L51.64769260555143,102.75410127365176L-67.34231448343427,-127.84725993802071z" style="fill:rgb(212,85,213)"/><path d="M-71.57063671591122,-125.04616860049983L48.32159228360703,105.1341438511959L50.26414852321987,104.2557061639266z" style="fill:rgb(158,48,222)"/><path d="M-67.10836924648193,-131.01993133803853L-66.59062084569173,-129.62307312417283L52.10028058463541,101.03528780978395z" style="fill:rgb(243,180,133)"/><path d="M46.34467283377784,105.15242219576736L-73.90558942735734,-124.77878768248468L-75.54126452130872,-125.43777491725342z" style="fill:rgb(42,41,169)"/><path d="M-66.59062084569173,-129.62307312417283L-67.34231448343427,-127.84725993802071L51.64769260555143,102.75410127365176z" style="fill:rgb(243,133,180)"/><path d="M48.32159228360703,105.1341438511959L-71.57063671591122,-125.04616860049983L-73.90558942735734,-124.77878768248468z" style="fill:rgb(96,32,206)"/><path d="M-67.34231448343427,-127.84725993802071L-69.16599334583039,-126.17028241092163L50.26414852321987,104.2557061639266z" style="fill:rgb(212,85,213)"/><path d="M50.26414852321987,104.2557061639266L-69.16599334583039,-126.17028241092163L-71.57063671591122,-125.04616860049983z" style="fill:rgb(158,48,222)"/><path d="M-68.75052336460868,-131.66623138619278L-71.07473897480243,-131.39342673942792L-73.46217523484974,-130.27657530416232zM-73.46217523484974,-130.27657530416232L-75.27937451815166,-128.61229360807107L-76.04179555760004,-126.84189426107027zM-66.59062084569173,-129.62307312417283L-68.75052336460868,-131.66623138619278L-73.46217523484974,-130.27657530416232zM-73.46217523484974,-130.27657530416232L-76.04179555760004,-126.84189426107027L-73.90558942735734,-124.77878768248468zM-66.59062084569173,-129.62307312417283L-67.10836924648193,-131.01993133803853L-68.75052336460868,-131.66623138619278zM-66.59062084569173,-129.62307312417283L-73.46217523484974,-130.27657530416232L-73.90558942735734,-124.77878768248468zM-76.04179555760004,-126.84189426107027L-75.54126452130872,-125.43777491725342L-73.90558942735734,-124.77878768248468zM-73.90558942735734,-124.77878768248468L-69.16599334583039,-126.17028241092163L-66.59062084569173,-129.62307312417283zM-69.16599334583039,-126.17028241092163L-67.34231448343427,-127.84725993802071L-66.59062084569173,-129.62307312417283zM-73.90558942735734,-124.77878768248468L-71.57063671591122,-125.04616860049983L-69.16599334583039,-126.17028241092163z" style="fill:rgb(83,212,212)"/></svg>
