<?xml version="1.0" encoding="UTF-8"?>
<!-- Generated by jsxcad -->
<!DOCTYPE svg PUBLIC "-//W3C//DTD SVG 1.1 Tiny//EN" "http://www.w3.org/Graphics/SVG/1.1/DTD/svg11-tiny.dtd">
<svg baseProfile="tiny" height="50.03000000000003mm" width="42.300000000000026mm" viewBox="0 0 42.300000000000026 50.03000000000003" version="1.1" stroke="black" stroke-width=".1" fill="none" xmlns="http://www.w3.org/2000/svg">
<path fill="#000000" stroke="#000000" d="M7.66525 42.53025 L8.5 40.515 L7.66525 38.49975 L5.65 37.665 L3.63475 38.49975 L2.8 40.515 L3.63475 42.53025 L5.65 43.365 z"/>
<path fill="#000000" stroke="#000000" d="M3.634744777595376 38.49974783680917 L3.634744777595376 38.49974783680917 L2.800000000000016 40.515 L2.800000000000016 40.515 z"/>
<path fill="#000000" stroke="#000000" d="M3.634744777595366 42.53025216319082 L3.634744777595366 42.53025216319082 L2.8000000000000056 40.51499999999999 L2.8000000000000056 40.51499999999999 z"/>
<path fill="#000000" stroke="#000000" d="M5.649999999999996 37.665000000000006 L5.649999999999996 37.665000000000006 L7.665252163190826 38.49974477759537 L7.665252163190826 38.49974477759537 z"/>
<path fill="#000000" stroke="#000000" d="M5.6500000000000075 37.66500000000001 L5.6500000000000075 37.66500000000001 L3.634747836809177 38.499744777595375 L3.634747836809177 38.499744777595375 z"/>
<path fill="#000000" stroke="#000000" d="M5.649999999999997 43.365 L5.649999999999997 43.365 L3.634747836809167 42.53025522240465 L3.634747836809167 42.53025522240465 z"/>
<path fill="#000000" stroke="#000000" d="M8.500000000000005 40.51499999999999 L8.500000000000005 40.51499999999999 L7.665255222404645 38.49974783680916 L7.665255222404645 38.49974783680916 z"/>
<path fill="#000000" stroke="#000000" d="M7.665252163190837 42.530255222404655 L7.665252163190837 42.530255222404655 L5.650000000000007 43.365000000000016 L5.650000000000007 43.365000000000016 z"/>
<path fill="#000000" stroke="#000000" d="M7.665255222404656 42.53025216319084 L7.665255222404656 42.53025216319084 L8.500000000000014 40.515 L8.500000000000014 40.515 z"/>
<path fill="#000000" stroke="#000000" d="M8.5 40.515 L7.66525 42.53025 L5.65 43.365 L3.63475 42.53025 L2.8 40.515 L3.63475 38.49975 L5.65 37.665 L7.66525 38.49975 z"/>
<path fill="#000000" stroke="#000000" d="M6.67862 39.09922 L4.62138 39.09922 L3.98565 41.05578 L5.65 42.265 L7.31435 41.05578 z"/>
<path fill="#000000" stroke="#000000" d="M5.649999999999998 42.265 L5.649999999999998 42.265 L3.985650502388812 41.05577930852112 L3.985650502388812 41.05577930852112 z"/>
<path fill="#000000" stroke="#000000" d="M7.314349497611197 41.05577930852113 L7.314349497611197 41.05577930852113 L5.650000000000011 42.265000000000015 L5.650000000000011 42.265000000000015 z"/>
<path fill="#000000" stroke="#000000" d="M6.678623714891883 39.09921879295845 L6.678623714891883 39.09921879295845 L7.31434908458757 41.055780297435525 L7.31434908458757 41.055780297435525 z"/>
<path fill="#000000" stroke="#000000" d="M4.6213762851081395 39.09921879295847 L4.6213762851081395 39.09921879295847 L3.985650915412453 41.05578029743553 L3.985650915412453 41.05578029743553 z"/>
<path fill="#000000" stroke="#000000" d="M4.62138 39.099220259843854 L4.62138 39.099220259843854 L6.67862 39.099220259843854 L6.67862 39.099220259843854 z"/>
<path fill="#000000" stroke="#000000" d="M4.62138 39.09922 L6.67862 39.09922 L7.31435 41.05578 L5.65 42.265 L3.98565 41.05578 z"/>
<path fill="#000000" stroke="#000000" d="M7.66525 11.53025 L8.5 9.515 L7.66525 7.49975 L5.65 6.665 L3.63475 7.49975 L2.8 9.515 L3.63475 11.53025 L5.65 12.365 z"/>
<path fill="#000000" stroke="#000000" d="M3.6347447775953756 7.499747836809176 L3.6347447775953756 7.499747836809176 L2.800000000000016 9.515000000000006 L2.800000000000016 9.515000000000006 z"/>
<path fill="#000000" stroke="#000000" d="M3.6347447775953654 11.530252163190827 L3.6347447775953654 11.530252163190827 L2.8000000000000056 9.514999999999997 L2.8000000000000056 9.514999999999997 z"/>
<path fill="#000000" stroke="#000000" d="M5.649999999999997 6.665000000000008 L5.649999999999997 6.665000000000008 L7.665252163190827 7.499744777595367 L7.665252163190827 7.499744777595367 z"/>
<path fill="#000000" stroke="#000000" d="M5.650000000000007 6.665000000000016 L5.650000000000007 6.665000000000016 L3.6347478368091766 7.499744777595376 L3.6347478368091766 7.499744777595376 z"/>
<path fill="#000000" stroke="#000000" d="M5.649999999999997 12.365000000000007 L5.649999999999997 12.365000000000007 L3.6347478368091664 11.530255222404648 L3.6347478368091664 11.530255222404648 z"/>
<path fill="#000000" stroke="#000000" d="M8.500000000000005 9.514999999999997 L8.500000000000005 9.514999999999997 L7.665255222404646 7.499747836809167 L7.665255222404646 7.499747836809167 z"/>
<path fill="#000000" stroke="#000000" d="M7.6652521631908375 11.530255222404657 L7.6652521631908375 11.530255222404657 L5.650000000000007 12.365000000000016 L5.650000000000007 12.365000000000016 z"/>
<path fill="#000000" stroke="#000000" d="M7.665255222404657 11.530252163190836 L7.665255222404657 11.530252163190836 L8.500000000000014 9.515000000000006 L8.500000000000014 9.515000000000006 z"/>
<path fill="#000000" stroke="#000000" d="M8.5 9.515 L7.66525 11.53025 L5.65 12.365 L3.63475 11.53025 L2.8 9.515 L3.63475 7.49975 L5.65 6.665 L7.66525 7.49975 z"/>
<path fill="#000000" stroke="#000000" d="M6.67862 8.09922 L4.62138 8.09922 L3.98565 10.05578 L5.65 11.265 L7.31435 10.05578 z"/>
<path fill="#000000" stroke="#000000" d="M5.649999999999998 11.265000000000002 L5.649999999999998 11.265000000000002 L3.985650502388813 10.055779308521121 L3.985650502388813 10.055779308521121 z"/>
<path fill="#000000" stroke="#000000" d="M7.314349497611196 10.055779308521133 L7.314349497611196 10.055779308521133 L5.650000000000011 11.265000000000015 L5.650000000000011 11.265000000000015 z"/>
<path fill="#000000" stroke="#000000" d="M6.678623714891882 8.099218792958458 L6.678623714891882 8.099218792958458 L7.31434908458757 10.055780297435527 L7.31434908458757 10.055780297435527 z"/>
<path fill="#000000" stroke="#000000" d="M4.62137628510814 8.099218792958466 L4.62137628510814 8.099218792958466 L3.985650915412452 10.055780297435536 L3.985650915412452 10.055780297435536 z"/>
<path fill="#000000" stroke="#000000" d="M4.62138 8.099220259843856 L4.62138 8.099220259843856 L6.67862 8.099220259843856 L6.67862 8.099220259843856 z"/>
<path fill="#000000" stroke="#000000" d="M4.62138 8.09922 L6.67862 8.09922 L7.31435 10.05578 L5.65 11.265 L3.98565 10.05578 z"/>
<path fill="#000000" stroke="#000000" d="M38.66525 42.53025 L39.5 40.515 L38.66525 38.49975 L36.65 37.665 L34.63475 38.49975 L33.8 40.515 L34.63475 42.53025 L36.65 43.365 z"/>
<path fill="#000000" stroke="#000000" d="M34.63474477759537 38.49974783680917 L34.63474477759537 38.49974783680917 L33.80000000000001 40.51500000000001 L33.80000000000001 40.51500000000001 z"/>
<path fill="#000000" stroke="#000000" d="M34.634744777595365 42.53025216319082 L34.634744777595365 42.53025216319082 L33.800000000000004 40.51499999999999 L33.800000000000004 40.51499999999999 z"/>
<path fill="#000000" stroke="#000000" d="M36.64999999999999 37.665000000000006 L36.64999999999999 37.665000000000006 L38.66525216319082 38.49974477759537 L38.66525216319082 38.49974477759537 z"/>
<path fill="#000000" stroke="#000000" d="M36.650000000000006 37.66500000000001 L36.650000000000006 37.66500000000001 L34.63474783680917 38.499744777595375 L34.63474783680917 38.499744777595375 z"/>
<path fill="#000000" stroke="#000000" d="M36.64999999999999 43.365 L36.64999999999999 43.365 L34.63474783680916 42.53025522240464 L34.63474783680916 42.53025522240464 z"/>
<path fill="#000000" stroke="#000000" d="M39.5 40.51499999999999 L39.5 40.51499999999999 L38.66525522240464 38.49974783680916 L38.66525522240464 38.49974783680916 z"/>
<path fill="#000000" stroke="#000000" d="M38.665252163190836 42.530255222404655 L38.665252163190836 42.530255222404655 L36.65 43.365000000000016 L36.65 43.365000000000016 z"/>
<path fill="#000000" stroke="#000000" d="M38.66525522240465 42.53025216319084 L38.66525522240465 42.53025216319084 L39.500000000000014 40.515 L39.500000000000014 40.515 z"/>
<path fill="#000000" stroke="#000000" d="M39.5 40.515 L38.66525 42.53025 L36.65 43.365 L34.63475 42.53025 L33.8 40.515 L34.63475 38.49975 L36.65 37.665 L38.66525 38.49975 z"/>
<path fill="#000000" stroke="#000000" d="M37.67862 39.09922 L35.62138 39.09922 L34.98565 41.05578 L36.65 42.265 L38.31435 41.05578 z"/>
<path fill="#000000" stroke="#000000" d="M36.64999999999999 42.265 L36.64999999999999 42.265 L34.98565050238881 41.05577930852112 L34.98565050238881 41.05577930852112 z"/>
<path fill="#000000" stroke="#000000" d="M38.31434949761119 41.05577930852113 L38.31434949761119 41.05577930852113 L36.650000000000006 42.265000000000015 L36.650000000000006 42.265000000000015 z"/>
<path fill="#000000" stroke="#000000" d="M37.67862371489188 39.09921879295846 L37.67862371489188 39.09921879295846 L38.31434908458757 41.055780297435525 L38.31434908458757 41.055780297435525 z"/>
<path fill="#000000" stroke="#000000" d="M35.621376285108134 39.09921879295846 L35.621376285108134 39.09921879295846 L34.98565091541245 41.05578029743553 L34.98565091541245 41.05578029743553 z"/>
<path fill="#000000" stroke="#000000" d="M35.62138 39.099220259843854 L35.62138 39.099220259843854 L37.67862 39.099220259843854 L37.67862 39.099220259843854 z"/>
<path fill="#000000" stroke="#000000" d="M35.62138 39.09922 L37.67862 39.09922 L38.31435 41.05578 L36.65 42.265 L34.98565 41.05578 z"/>
<path fill="#000000" stroke="#000000" d="M38.66525 11.53025 L39.5 9.515 L38.66525 7.49975 L36.65 6.665 L34.63475 7.49975 L33.8 9.515 L34.63475 11.53025 L36.65 12.365 z"/>
<path fill="#000000" stroke="#000000" d="M34.63474477759537 7.499747836809177 L34.63474477759537 7.499747836809177 L33.80000000000001 9.515000000000008 L33.80000000000001 9.515000000000008 z"/>
<path fill="#000000" stroke="#000000" d="M34.63474477759536 11.530252163190827 L34.63474477759536 11.530252163190827 L33.800000000000004 9.514999999999997 L33.800000000000004 9.514999999999997 z"/>
<path fill="#000000" stroke="#000000" d="M36.64999999999999 6.665000000000007 L36.64999999999999 6.665000000000007 L38.66525216319082 7.499744777595367 L38.66525216319082 7.499744777595367 z"/>
<path fill="#000000" stroke="#000000" d="M36.650000000000006 6.665000000000017 L36.650000000000006 6.665000000000017 L34.63474783680917 7.499744777595377 L34.63474783680917 7.499744777595377 z"/>
<path fill="#000000" stroke="#000000" d="M36.64999999999999 12.365000000000007 L36.64999999999999 12.365000000000007 L34.63474783680916 11.530255222404646 L34.63474783680916 11.530255222404646 z"/>
<path fill="#000000" stroke="#000000" d="M39.5 9.514999999999997 L39.5 9.514999999999997 L38.665255222404646 7.499747836809167 L38.665255222404646 7.499747836809167 z"/>
<path fill="#000000" stroke="#000000" d="M38.665252163190836 11.530255222404657 L38.665252163190836 11.530255222404657 L36.650000000000006 12.365000000000016 L36.650000000000006 12.365000000000016 z"/>
<path fill="#000000" stroke="#000000" d="M38.66525522240465 11.530252163190836 L38.66525522240465 11.530252163190836 L39.500000000000014 9.515000000000006 L39.500000000000014 9.515000000000006 z"/>
<path fill="#000000" stroke="#000000" d="M39.5 9.515 L38.66525 11.53025 L36.65 12.365 L34.63475 11.53025 L33.8 9.515 L34.63475 7.49975 L36.65 6.665 L38.66525 7.49975 z"/>
<path fill="#000000" stroke="#000000" d="M37.67862 8.09922 L35.62138 8.09922 L34.98565 10.05578 L36.65 11.265 L38.31435 10.05578 z"/>
<path fill="#000000" stroke="#000000" d="M36.64999999999999 11.265000000000002 L36.64999999999999 11.265000000000002 L34.98565050238881 10.055779308521121 L34.98565050238881 10.055779308521121 z"/>
<path fill="#000000" stroke="#000000" d="M38.31434949761119 10.055779308521133 L38.31434949761119 10.055779308521133 L36.650000000000006 11.265000000000017 L36.650000000000006 11.265000000000017 z"/>
<path fill="#000000" stroke="#000000" d="M37.67862371489188 8.099218792958458 L37.67862371489188 8.099218792958458 L38.31434908458757 10.055780297435527 L38.31434908458757 10.055780297435527 z"/>
<path fill="#000000" stroke="#000000" d="M35.621376285108134 8.099218792958464 L35.621376285108134 8.099218792958464 L34.98565091541245 10.055780297435536 L34.98565091541245 10.055780297435536 z"/>
<path fill="#000000" stroke="#000000" d="M35.62138 8.099220259843856 L35.62138 8.099220259843856 L37.67862 8.099220259843856 L37.67862 8.099220259843856 z"/>
<path fill="#000000" stroke="#000000" d="M35.62138 8.09922 L37.67862 8.09922 L38.31435 10.05578 L36.65 11.265 L34.98565 10.05578 z"/>
<path fill="#ffffff" stroke="#ffffff" d="M28.65 3.865 L13.65 3.865 L13.65 -3.865 L28.65 -3.865 z"/>
<path fill="#ffffff" stroke="#ffffff" d="M13.65 -3.864999999999986 L13.65 -3.864999999999986 L28.65 -3.864999999999986 L28.65 -3.864999999999986 z"/>
<path fill="#ffffff" stroke="#ffffff" d="M28.650000000000013 3.865 L28.650000000000013 3.865 L28.650000000000013 -3.865 L28.650000000000013 -3.865 z"/>
<path fill="#ffffff" stroke="#ffffff" d="M13.650000000000013 3.865 L13.650000000000013 3.865 L13.650000000000013 -3.865 L13.650000000000013 -3.865 z"/>
<path fill="#ffffff" stroke="#ffffff" d="M13.65 3.8650000000000144 L13.65 3.8650000000000144 L28.65 3.8650000000000144 L28.65 3.8650000000000144 z"/>
<path fill="#ffffff" stroke="#ffffff" d="M13.65 3.865 L28.65 3.865 L28.65 -3.865 L13.65 -3.865 z"/>
<path fill="#000000" stroke="#000000" d="M0 10.80467 L0.80739 9.99844 L1.06944 9.73676 L2.89762 7.9112 L3.43928 7.37033 L3.47233 7.33733 L3.72159 7.08842 L4.12087 6.68971 L5.80187 5.01112 L6.00414 4.80915 L6.21766 4.59594 L6.94964 3.865 L35.36033 3.865 L38.2538 6.76262 L39.07658 7.58659 L39.47529 7.98587 L42.3 10.81464 L42.3 39.22533 L41.49261 40.03156 L41.23056 40.29324 L39.40238 42.1188 L38.82767 42.69267 L38.57841 42.94158 L38.17913 43.34029 L35.35036 46.165 L6.93967 46.165 L6.13344 45.35761 L5.87176 45.09556 L4.0462 43.26738 L3.22342 42.44341 L2.82471 42.04413 L0 39.21536 M35.88697 10.95423 L37.62881 10.67963 L37.90591 8.93818 L36.33533 8.13651 L35.08755 9.38249 M35.48537 41.49381 L37.22682 41.77091 L37.45631 41.32131 L38.02849 40.20033 L36.78251 38.95255 L35.65899 39.52399 L35.21077 39.75197 M4.39409 41.09182 L5.96467 41.89349 L7.21245 40.64751 L6.41303 39.07577 L4.67119 39.35037 M4.84369 8.70869 L4.81246 8.76988 L4.27151 9.82967 L5.51749 11.07745 L6.55753 10.54846 L6.64101 10.50601 L7.08923 10.27803 L6.81463 8.53619 L5.07318 8.25909 z"/>
<path fill="#000000" stroke="#000000" d="M35.36032999281609 3.8650000071735935 L35.36032999281609 3.8650000071735935 L38.25379635057847 6.762623644185627 L38.896309777299074 7.406060222381407 L39.07658027298822 7.586589727403438 L39.405039310345536 7.9155206886650005 L39.47528884339199 7.985871154948596 L42.29999959770156 10.814640401721249 L42.29999959770156 10.814640401721249 L42.29999959770156 10.814640401721249 L42.29999959770156 10.814640401721249 L39.47528884339199 7.985871154948596 L39.07658027298822 7.586589727403438 L38.25379635057847 6.762623644185627 L35.36032999281609 3.8650000071735935 L35.36032999281609 3.8650000071735935 z"/>
<path fill="#000000" stroke="#000000" d="M7.0892302645818965 10.278030520194052 L7.0892302645818965 10.278030520194052 L6.641007978885322 10.506006026289596 L6.557531908856652 10.548463753000078 L5.5174905912236225 11.077451162403841 L5.5174905912236225 11.077451162403841 L5.841269993188673 10.91276998660826 L6.557531908856652 10.548463753000078 L6.641007978885322 10.506006026289596 z"/>
<path fill="#000000" stroke="#000000" d="M42.30000000000001 39.22533 L42.30000000000001 39.22533 L42.30000000000001 10.81464 L42.30000000000001 10.81464 L42.30000000000001 10.81464 L42.30000000000001 10.81464 L42.30000000000001 39.22533 L42.30000000000001 39.22533 L42.30000000000001 39.22533 L42.30000000000001 39.22533 z"/>
<path fill="#000000" stroke="#000000" d="M6.94964 3.865000000000016 L6.94964 3.865000000000016 L6.94964 3.865000000000016 L35.36033 3.865000000000016 L35.36033 3.865000000000016 L35.36033 3.865000000000016 L35.36033 3.865000000000016 L6.94964 3.865000000000016 L6.94964 3.865000000000016 L6.94964 3.865000000000016 z"/>
<path fill="#000000" stroke="#000000" d="M0.8073891965575131 9.998439195403142 L7.173607642200203e-9 10.804670007183914 L7.173607642200203e-9 10.804670007183914 L7.173607642200203e-9 10.804670007183914 L7.173607642200203e-9 10.804670007183914 L7.173607642200203e-9 10.804670007183914 L7.173607642200203e-9 10.804670007183914 L0.8073891965575131 9.998439195403142 L1.0169795480636075 9.789149547414272 L1.0694421807725147 9.736762183905808 L2.8976236441856407 7.911203649421539 L3.4392772094720434 7.370327205462663 L3.4723259182251676 7.337325912360548 L3.54106022238142 7.268690222700934 L3.7215897274034506 7.0884197270117895 L4.050520688665014 6.759960689654475 L4.120871154948608 6.689711156608016 L5.801872037300639 5.011122040227796 L5.960560875178452 4.852660876435892 L6.004137137736105 4.809147133623657 L6.1736687517947 4.639858750001301 L6.217655308469698 4.595935301728994 L6.949640401721263 3.86500040229845 L6.949640401721263 3.86500040229845 L6.949640401721263 3.86500040229845 L6.949640401721263 3.86500040229845 L6.949640401721263 3.86500040229845 L6.949640401721263 3.86500040229845 L6.217655308469698 4.595935301728994 L6.004137137736105 4.809147133623657 L5.801872037300639 5.011122040227796 L4.120871154948608 6.689711156608016 L3.7215897274034506 7.0884197270117895 L3.4723259182251676 7.337325912360548 L3.4392772094720434 7.370327205462663 L2.8976236441856407 7.911203649421539 L1.0694421807725147 9.736762183905808 z"/>
<path fill="#000000" stroke="#000000" d="M6.94964 3.865 L6.21766 4.59594 L6.17367 4.63986 L6.00414 4.80915 L5.96056 4.85266 L5.80187 5.01112 L4.12087 6.68971 L4.05052 6.75996 L3.72159 7.08842 L3.54106 7.26869 L3.47233 7.33733 L3.43928 7.37033 L2.89762 7.9112 L1.06944 9.73676 L1.01698 9.78915 L0.80739 9.99844 L0 10.80467 L0 39.21536 L2.82471 42.04413 L2.89496 42.11448 L3.22342 42.44341 L3.40369 42.62394 L4.0462 43.26738 L5.87176 45.09556 L5.92415 45.14802 L6.13344 45.35761 L6.93967 46.165 L35.35036 46.165 L38.17913 43.34029 L38.24948 43.27004 L38.57841 42.94158 L38.75894 42.76131 L38.82767 42.69267 L39.40238 42.1188 L41.23056 40.29324 L41.28302 40.24085 L41.49261 40.03156 L42.3 39.22533 L42.3 10.81464 L39.47529 7.98587 L39.40504 7.91552 L39.07658 7.58659 L38.89631 7.40606 L38.2538 6.76262 L35.36033 3.865 M37.45631 41.32131 L37.39196 41.44737 L37.22682 41.77091 L35.84411 41.55089 L35.48537 41.49381 L35.26734 40.11079 L35.21077 39.75197 L35.65899 39.52399 L36.45873 39.11723 L36.78251 38.95255 L37.77182 39.94328 L38.02849 40.20033 M35.25223 9.70627 L35.08755 9.38249 L36.07828 8.39318 L36.33533 8.13651 L37.58237 8.77304 L37.90591 8.93818 L37.68589 10.32089 L37.62881 10.67963 L36.24579 10.89766 L35.88697 10.95423 M4.39409 41.09182 L4.61411 39.70911 L4.67119 39.35037 L6.05421 39.13234 L6.41303 39.07577 L7.04777 40.32373 L7.21245 40.64751 L6.22172 41.63682 L5.96467 41.89349 L4.71763 41.25696 M5.07318 8.25909 L6.45589 8.47911 L6.81463 8.53619 L7.03266 9.91921 L7.08923 10.27803 L6.64101 10.50601 L6.55753 10.54846 L5.84127 10.91277 L5.51749 11.07745 L4.52818 10.08672 L4.27151 9.82967 L4.81246 8.76988 L4.84369 8.70869 L4.90804 8.58263 z"/>
<path fill="#000000" stroke="#000000" d="M1.4210854715202004e-14 10.80467 L1.4210854715202004e-14 10.80467 L1.4210854715202004e-14 39.21536 L1.4210854715202004e-14 39.21536 L1.4210854715202004e-14 39.21536 L1.4210854715202004e-14 39.21536 L1.4210854715202004e-14 10.80467 L1.4210854715202004e-14 10.80467 L1.4210854715202004e-14 10.80467 L1.4210854715202004e-14 10.80467 z"/>
<path fill="#000000" stroke="#000000" d="M4.022984333878681e-7 39.215359598278745 L4.022984333878681e-7 39.215359598278745 L4.022984333878681e-7 39.215359598278745 L2.8247111566080036 42.044128845051404 L3.2234197270117746 42.44341027259656 L4.046203649421526 43.26737635581437 L5.871762183905793 45.095557819227494 L6.1334391954031275 45.3576108034425 L6.939670007183898 46.1649999928264 L6.939670007183898 46.1649999928264 L6.939670007183898 46.1649999928264 L6.939670007183898 46.1649999928264 L6.939670007183898 46.1649999928264 L6.939670007183898 46.1649999928264 L6.1334391954031275 45.3576108034425 L5.92414954741426 45.148020451936404 L5.871762183905793 45.095557819227494 L4.046203649421526 43.26737635581437 L3.4036902227009174 42.62393977761859 L3.2234197270117746 42.44341027259656 L2.894960689654461 42.114479311334996 L2.8247111566080036 42.044128845051404 L4.022984333878681e-7 39.215359598278745 z"/>
<path fill="#000000" stroke="#000000" d="M6.93967 46.16500000000001 L6.93967 46.16500000000001 L35.35036 46.16500000000001 L35.35036 46.16500000000001 L35.35036 46.16500000000001 L35.35036 46.16500000000001 L6.93967 46.16500000000001 L6.93967 46.16500000000001 L6.93967 46.16500000000001 L6.93967 46.16500000000001 z"/>
<path fill="#000000" stroke="#000000" d="M35.350359598278764 46.16499959770157 L35.350359598278764 46.16499959770157 L35.350359598278764 46.16499959770157 L38.179128845051416 43.34028884339201 L38.57841027259657 42.94158027298823 L38.82767408177485 42.692674087639475 L39.40237635581438 42.118796350578485 L41.230557819227506 40.29323781609421 L41.49261080344251 40.03156080459688 L42.299999992826415 39.225329992816114 L42.299999992826415 39.225329992816114 L42.299999992826415 39.225329992816114 L42.299999992826415 39.225329992816114 L42.299999992826415 39.225329992816114 L42.299999992826415 39.225329992816114 L41.49261080344251 40.03156080459688 L41.283020451936416 40.240850452585754 L41.230557819227506 40.29323781609421 L39.40237635581438 42.118796350578485 L38.82767408177485 42.692674087639475 L38.75893977761861 42.76130977729909 L38.57841027259657 42.94158027298823 L38.24947931133501 43.27003931034555 L38.179128845051416 43.34028884339201 L35.350359598278764 46.16499959770157 z"/>
<path fill="#000000" stroke="#000000" d="M37.90591226996077 8.938180361197082 L37.90591226996077 8.938180361197082 L37.62881204218545 10.679630324953381 L37.62881204218545 10.679630324953381 L37.685894826650994 10.320890768018673 z"/>
<path fill="#000000" stroke="#000000" d="M35.88696976830464 10.954228530305405 L35.88696976830464 10.954228530305405 L36.24579015514515 10.89766098411986 L37.62880996703987 10.67962979092667 L37.62880996703987 10.67962979092667 z"/>
<path fill="#000000" stroke="#000000" d="M36.33533009069699 8.136509822312576 L36.33533009069699 8.136509822312576 L37.90590960781424 8.938180768343823 L37.90590960781424 8.938180768343823 L37.58237144258482 8.773037173785335 z"/>
<path fill="#000000" stroke="#000000" d="M35.48536967504662 41.49381204218545 L35.48536967504662 41.49381204218545 L35.84410923198132 41.550894826650996 L37.22681963880291 41.770912269960775 L37.22681963880291 41.770912269960775 z"/>
<path fill="#000000" stroke="#000000" d="M35.65899202111469 39.52399397371043 L35.21076973541811 39.75196947980598 L35.21076973541811 39.75196947980598 L35.65899202111469 39.52399397371043 L36.78250940877639 38.95254883759619 L36.78250940877639 38.95254883759619 L36.458730006811344 39.11723001339177 z"/>
<path fill="#000000" stroke="#000000" d="M36.78250851953384 38.9525514783421 L36.78250851953384 38.9525514783421 L38.02849341895408 40.20032658595116 L38.02849341895408 40.20032658595116 L37.771817808327675 39.94328218852788 z"/>
<path fill="#000000" stroke="#000000" d="M37.39196282621468 41.44737144258484 L37.45630870834075 41.32130934069833 L38.028490177687445 40.20033009069701 L38.028490177687445 40.20033009069701 L37.45630870834075 41.32130934069833 L37.226819231656194 41.770909607814254 L37.226819231656194 41.770909607814254 z"/>
<path fill="#000000" stroke="#000000" d="M35.26733901588016 40.11079015514515 L35.48537020907335 41.49380996703987 L35.48537020907335 41.49380996703987 L35.21077146969462 39.75196976830464 L35.21077146969462 39.75196976830464 z"/>
<path fill="#000000" stroke="#000000" d="M7.212448521657912 40.64750851953385 L7.212448521657912 40.64750851953385 L5.964673414048851 41.893493418954094 L5.964673414048851 41.893493418954094 L6.221717811472129 41.63681780832769 z"/>
<path fill="#000000" stroke="#000000" d="M4.671187957814571 39.350369675046615 L4.614105173349029 39.70910923198133 L4.394087730039249 41.09181963880292 L4.394087730039249 41.09181963880292 L4.671187957814571 39.350369675046615 z"/>
<path fill="#000000" stroke="#000000" d="M6.41303052019404 39.075769735418106 L6.41303052019404 39.075769735418106 L7.212451162403827 40.64750940877638 L7.212451162403827 40.64750940877638 L7.047769986608247 40.323730006811324 z"/>
<path fill="#000000" stroke="#000000" d="M4.671190032960131 39.35037020907336 L4.671190032960131 39.35037020907336 L6.41303023169536 39.07577146969462 L6.41303023169536 39.07577146969462 L6.054209844854847 39.13233901588017 z"/>
<path fill="#000000" stroke="#000000" d="M4.717628557415164 41.256962826214675 L5.964669909302996 41.89349017768743 L5.964669909302996 41.89349017768743 L4.394090392185752 41.09181923165618 L4.394090392185752 41.09181923165618 z"/>
<path fill="#000000" stroke="#000000" d="M5.517491480466156 11.077448521657898 L5.517491480466156 11.077448521657898 L4.2715065810459185 9.829673414048838 L4.2715065810459185 9.829673414048838 L4.528182191672319 10.086717811472116 z"/>
<path fill="#000000" stroke="#000000" d="M6.814629790926665 8.536190032960125 L6.814629790926665 8.536190032960125 L7.089228530305399 10.278030231695354 L7.089228530305399 10.278030231695354 L7.032660984119853 9.919209844854842 z"/>
<path fill="#000000" stroke="#000000" d="M5.073180361197079 8.259087730039246 L5.073180361197079 8.259087730039246 L6.814630324953377 8.536187957814567 L6.814630324953377 8.536187957814567 L6.455890768018669 8.479105173349026 z"/>
<path fill="#000000" stroke="#000000" d="M4.843691291659278 8.70869065930168 L4.812458742448176 8.769879358107788 L4.271509822312586 9.829669909303007 L4.271509822312586 9.829669909303007 L4.812458742448176 8.769879358107788 L4.843691291659278 8.70869065930168 L5.073180768343834 8.259090392185763 L5.073180768343834 8.259090392185763 L4.908037173785345 8.582628557415175 z"/>
<path fill="#000000" stroke="#000000" d="M35.087551478342114 9.38249148046617 L35.087551478342114 9.38249148046617 L36.33532658595117 8.136506581045934 L36.33532658595117 8.136506581045934 L36.07828218852789 8.393182191672334 z"/>
<path fill="#000000" stroke="#000000" d="M35.087548837596174 9.382490591223613 L35.087548837596174 9.382490591223613 L35.25223001339175 9.706269993188661 L35.88696947980596 10.954230264581886 L35.88696947980596 10.954230264581886 z"/>
<path fill="#c0c0c0" stroke="#c0c0c0" d="M21.15 29.015 L19.15 28.4791 L17.6859 27.015 L17.15 25.015 L17.6859 23.015 L19.15 21.5509 L21.15 21.015 L23.15 21.5509 L24.6141 23.015 L25.15 25.015 L24.6141 27.015 L23.15 28.4791 z"/>
<path fill="#c0c0c0" stroke="#c0c0c0" d="M25.150000000000013 25.015000000000004 L25.150000000000013 25.015000000000004 L24.614101506944053 27.01500040378444 L24.614101506944053 27.01500040378444 z"/>
<path fill="#c0c0c0" stroke="#c0c0c0" d="M23.15000080756889 28.47910080756889 L23.15000080756889 28.47910080756889 L24.61410080756889 27.01500080756889 L24.61410080756889 27.01500080756889 z"/>
<path fill="#c0c0c0" stroke="#c0c0c0" d="M23.150000807568873 21.55089919243112 L23.150000807568873 21.55089919243112 L24.614100807568875 23.014999192431123 L24.614100807568875 23.014999192431123 z"/>
<path fill="#c0c0c0" stroke="#c0c0c0" d="M24.614101506944046 23.014999596215556 L24.614101506944046 23.014999596215556 L25.150000000000006 25.014999999999997 L25.150000000000006 25.014999999999997 z"/>
<path fill="#c0c0c0" stroke="#c0c0c0" d="M21.150000000000002 29.015000000000015 L21.150000000000002 29.015000000000015 L23.15000040378444 28.479101506944055 L23.15000040378444 28.479101506944055 z"/>
<path fill="#c0c0c0" stroke="#c0c0c0" d="M21.149999999999995 21.015000000000008 L21.149999999999995 21.015000000000008 L23.150000403784432 21.550898493055968 L23.150000403784432 21.550898493055968 z"/>
<path fill="#c0c0c0" stroke="#c0c0c0" d="M21.150000000000002 21.015000000000015 L21.150000000000002 21.015000000000015 L19.14999959621556 21.550898493055975 L19.14999959621556 21.550898493055975 z"/>
<path fill="#c0c0c0" stroke="#c0c0c0" d="M17.150000000000013 25.015000000000004 L17.150000000000013 25.015000000000004 L17.685898493055973 23.014999596215564 L17.685898493055973 23.014999596215564 z"/>
<path fill="#c0c0c0" stroke="#c0c0c0" d="M17.685899192431133 23.014999192431134 L17.685899192431133 23.014999192431134 L19.149999192431135 21.550899192431135 L19.149999192431135 21.550899192431135 z"/>
<path fill="#c0c0c0" stroke="#c0c0c0" d="M17.685898493055966 27.015000403784434 L17.685898493055966 27.015000403784434 L17.150000000000006 25.014999999999997 L17.150000000000006 25.014999999999997 z"/>
<path fill="#c0c0c0" stroke="#c0c0c0" d="M19.149999192431117 28.479100807568877 L19.149999192431117 28.479100807568877 L17.68589919243112 27.015000807568878 L17.68589919243112 27.015000807568878 z"/>
<path fill="#c0c0c0" stroke="#c0c0c0" d="M19.149999596215554 28.479101506944048 L19.149999596215554 28.479101506944048 L21.149999999999995 29.015000000000008 L21.149999999999995 29.015000000000008 z"/>
<path fill="#c0c0c0" stroke="#c0c0c0" d="M19.15 28.4791 L21.15 29.015 L23.15 28.4791 L24.6141 27.015 L25.15 25.015 L24.6141 23.015 L23.15 21.5509 L21.15 21.015 L19.15 21.5509 L17.6859 23.015 L17.15 25.015 L17.6859 27.015 z"/>
</svg>