<?xml version="1.0" encoding="UTF-8"?>
<!-- Generated by jsxcad -->
<!DOCTYPE svg PUBLIC "-//W3C//DTD SVG 1.1 Tiny//EN" "http://www.w3.org/Graphics/SVG/1.1/DTD/svg11-tiny.dtd">
<svg viewBox="-250 -250 500 500" width="500" height="500" xmlns="http://www.w3.org/2000/svg"><path d="M32.6859653769296,91.79979614009599L32.86167983392878,91.86152305354365L32.6993831209359,91.80450625676856z" style="fill:rgb(45,107,222)"/><path d="M31.78597245321702,94.51141259078346L31.120042204137306,93.09634664217145L31.13028687103913,93.11812306881997z" style="fill:rgb(104,220,211)"/><path d="M31.78597245321702,94.51141259078346L31.13028687103913,93.11812306881997L31.71731070785324,94.36551336307956z" style="fill:rgb(5,104,156)"/><path d="M34.324126354079326,92.37526420689207L33.759216360968644,94.04532632749626L33.815767784404784,93.87814672689018z" style="fill:rgb(248,106,160)"/><path d="M34.38001921479494,93.9011751751143L31.78263281715224,94.50431554828512L31.980206080531524,94.45843874908104z" style="fill:rgb(133,26,205)"/><path d="M61.38502603888082,87.63818251050911L33.759216360968644,94.04532632749626L34.38025615938388,93.9089898953022z" style="fill:rgb(83,212,212)"/><path d="M32.6993831209359,91.80450625676856L23.768120743920996,74.95309924595095L31.287259689387504,92.98670283225937zM31.13028687103913,93.11812306881997L31.287259689387504,92.98670283225937L23.768120743920996,74.95309924595095z" style="fill:rgb(197,72,218)"/><path d="M32.6993831209359,91.80450625676856L32.86167983392878,91.86152305354365L25.410604973454817,75.51300189497472zM34.324126354079326,92.37526420689207L25.410604973454817,75.51300189497472L32.86167983392878,91.86152305354365z" style="fill:rgb(57,36,182)"/><path d="M31.13028687103913,93.11812306881997L22.167170308698314,76.28247831181994L31.71731070785324,94.36551336307956z" style="fill:rgb(241,184,128)"/><path d="M61.38502603888082,87.63818251050911L34.38001921479494,93.9011751751143L61.14285440275028,87.69442179304787z" style="fill:rgb(83,205,218)"/><path d="M31.78263281715224,94.50431554828512L31.71731070785324,94.36551336307956L22.167170308698314,76.28247831181994z" style="fill:rgb(241,184,128)"/><path d="M62.62282221740516,84.82976088417448L62.80381794125367,84.89100450386925L62.636643217336115,84.83443460750813z" style="fill:rgb(46,122,226)"/><path d="M62.62282221740516,84.82976088417448L63.65536573921253,85.17918279793327L62.80381794125367,84.89100450386925z" style="fill:rgb(48,60,201)"/><path d="M64.31022973789437,85.40079505065492L62.80381794125367,84.89100450386925L63.65536573921253,85.17918279793327z" style="fill:rgb(63,26,171)"/><path d="M68.1398856623141,83.54524539622993L67.95662455996184,80.52048558657076L67.02458898083694,81.26185060866264z" style="fill:rgb(247,158,158)"/><path d="M61.775187753921415,87.54758620900121L61.70126633237199,87.4017101829984L61.77159042855373,87.5404906629149z" style="fill:rgb(131,227,206)"/><path d="M64.4073285832115,86.9284367636184L61.77159042855373,87.5404906629149L61.97208243251332,87.4939373251945z" style="fill:rgb(84,226,194)"/><path d="M65.06244334998959,74.57871155855456L67.02458898083694,81.26185060866264L67.95662455996184,80.52048558657076z" style="fill:rgb(247,158,158)"/><path d="M68.2907083912753,86.03461140669818L61.38502603888082,87.63818251050911L61.775187753921415,87.54758620900121z" style="fill:rgb(127,37,217)"/><path d="M68.2907083912753,86.03461140669818L68.1398856623141,83.54524539622993L67.02458898083694,81.26185060866264z" style="fill:rgb(247,158,158)"/><path d="M27.540285039978503,103.46539790854045L46.63530307130972,99.06866629628685L44.14728163108417,99.64154269030195z" style="fill:rgb(121,49,228)"/><path d="M27.540285039978503,103.46539790854045L50.90567098786458,98.08539287180639L49.469961811981136,98.4159669585495z" style="fill:rgb(125,41,221)"/><path d="M31.13028687103913,93.11812306881997L23.768120743920996,74.95309924595095L22.167170308698314,76.28247831181994z" style="fill:rgb(197,72,218)"/><path d="M32.6993831209359,91.80450625676856L25.410604973454817,75.51300189497472L23.768120743920996,74.95309924595095z" style="fill:rgb(57,36,182)"/><path d="M68.2907083912753,86.03461140669818L67.02458898083694,81.26185060866264L66.25418978616752,81.87463804764268zM65.06244334998959,74.57871155855456L65.23898736757127,77.6061009390091L67.02458898083694,81.26185060866264z" style="fill:rgb(247,158,158)"/><path d="M31.78263281715224,94.50431554828512L22.167170308698314,76.28247831181994L22.817457678327436,77.66767234713078z" style="fill:rgb(241,184,128)"/><path d="M62.636643217336115,84.83443460750813L54.17381945679362,67.73254808736579L61.226096941417715,86.02252976192872zM61.06929904900271,86.15459835414799L61.226096941417715,86.02252976192872L54.17381945679362,67.73254808736579z" style="fill:rgb(197,72,218)"/><path d="M62.636643217336115,84.83443460750813L62.80381794125367,84.89100450386925L55.86674100040658,68.28757781284052zM64.31022973789437,85.40079505065492L55.86674100040658,68.28757781284052L62.80381794125367,84.89100450386925z" style="fill:rgb(57,36,182)"/><path d="M67.02458898083694,81.26185060866264L65.23898736757127,77.6061009390091L65.3842868878163,80.09770745505259z" style="fill:rgb(247,158,158)"/><path d="M44.394908883329215,106.04018872851935L44.14728163108417,99.64154269030195L44.225897477501256,101.67297060348041z" style="fill:rgb(0,127,127)"/><path d="M67.02458898083694,81.26185060866264L65.3842868878163,80.09770745505259L66.25418978616752,81.87463804764268zM65.52187826217911,82.4571341368173L68.2907083912753,86.03461140669818L66.25418978616752,81.87463804764268zM65.52187826217911,82.4571341368173L68.60359014442605,91.19877723167055L68.2907083912753,86.03461140669818z" style="fill:rgb(247,158,158)"/><path d="M44.865989292883455,104.30761862235605L44.26959652101599,102.8021464556509L44.28050350950464,102.82968287579973z" style="fill:rgb(129,225,208)"/><path d="M44.394908883329215,106.04018872851935L44.225897477501256,101.67297060348041L44.26959652101599,102.8021464556509zM44.394908883329215,106.04018872851935L44.26959652101599,102.8021464556509L44.31569122465875,103.99322575808007zM51.96446808522877,97.84159830322167L52.25650298342795,104.24242530049179L52.10871763615344,101.00325512348687z" style="fill:rgb(0,127,127)"/><path d="M59.59733685168761,63.358802303646726L65.23898736757127,77.6061009390091L65.06244334998959,74.57871155855456zM65.3842868878163,80.09770745505259L65.52187826217911,82.4571341368173L66.25418978616752,81.87463804764268zM68.60406907187715,91.20668202154279L68.60359014442605,91.19877723167055L65.68572194563546,85.26673728364068z" style="fill:rgb(247,158,158)"/><path d="M51.64769260555143,102.75410127365176L49.74780768264188,104.81610219101067L50.26414852321987,104.2557061639266z" style="fill:rgb(216,75,202)"/><path d="M65.52187826217911,82.4571341368173L65.68572194563546,85.26673728364068L68.60359014442605,91.19877723167055zM68.60406907187715,91.20668202154279L65.85069614612182,88.04867207654084L68.77159144223975,93.97167102677989z" style="fill:rgb(247,158,158)"/><path d="M18.39518173783939,83.81154807924605L18.271425689719322,76.24344268176596L18.312177115655025,78.7355316848005z" style="fill:rgb(127,127,127)"/><path d="M61.06929904900271,86.15459835414799L54.17381945679362,67.73254808736579L52.574625359036126,69.06860334262265z" style="fill:rgb(197,72,218)"/><path d="M62.636643217336115,84.83443460750813L55.86674100040658,68.28757781284052L54.17381945679362,67.73254808736579z" style="fill:rgb(57,36,182)"/><path d="M68.60406907187715,91.20668202154279L65.68572194563546,85.26673728364068L65.68618336556416,85.27464974542336z" style="fill:rgb(247,158,158)"/><path d="M69.14976891922414,100.3793125522447L44.394908883329215,106.04018872851935L46.897045918638874,105.46801065932092z" style="fill:rgb(122,46,226)"/><path d="M65.23898736757127,77.6061009390091L59.895584111780614,68.88600490314309L65.3842868878163,80.09770745505259zM68.60406907187715,91.20668202154279L65.6892886416734,85.28096003676085L65.85069614612182,88.04867207654084z" style="fill:rgb(247,158,158)"/><path d="M69.14976891922414,100.3793125522447L49.74780768264188,104.81610219101067L51.19168123393945,104.48592672430104z" style="fill:rgb(125,41,221)"/><path d="M33.39751825454232,116.46267460977597L33.57715464249069,116.52908052979426L33.41123544539662,116.46774195003971z" style="fill:rgb(45,107,222)"/><path d="M65.3842868878163,80.09770745505259L63.777506990895546,83.8446506767507L65.52187826217911,82.4571341368173z" style="fill:rgb(247,158,158)"/><path d="M33.061979688413864,74.51788349486927L46.12116956935684,99.62438898971227L48.05247641363751,98.7503663714704z" style="fill:rgb(158,48,222)"/><path d="M59.59733685168761,63.358802303646726L59.760933585261256,66.39062146797784L65.23898736757127,77.6061009390091z" style="fill:rgb(247,158,158)"/><path d="M65.8475843076193,88.04236458881695L65.68572194563546,85.26673728364068L65.52187826217911,82.4571341368173z" style="fill:rgb(127,127,127)"/><path d="M35.04339340768853,73.61790561357742L48.05247641363751,98.7503663714704L50.02151205645596,98.7267332970367z" style="fill:rgb(96,32,206)"/><path d="M31.635981453036436,76.0322044360841L44.740983151650205,101.11622406721067L46.12116956935684,99.62438898971227z" style="fill:rgb(212,85,213)"/><path d="M65.6892886416734,85.28096003676085L65.68618336556416,85.27464974542336L65.8475843076193,88.04236458881695z" style="fill:rgb(247,158,158)"/><path d="M31.635981453036436,76.0322044360841L44.28050350950464,102.82968287579973L44.740983151650205,101.11622406721067z" style="fill:rgb(243,133,180)"/><path d="M37.05360951816851,73.57171211349385L50.02151205645596,98.7267332970367L50.76202299388538,99.1439599363316z" style="fill:rgb(42,41,169)"/><path d="M31.808285129031784,117.82105100096646L32.40904507775594,119.12965807559031L32.376061729970736,119.05780645829869z" style="fill:rgb(6,117,166)"/><path d="M77.01805004476562,101.4342810813009L76.21021313713001,89.4501442522041L73.33752356714064,83.50242783578713z" style="fill:rgb(247,158,158)"/><path d="M37.05360951816851,73.57171211349385L50.76202299388538,99.1439599363316L51.503553342658414,99.56176710370063z" style="fill:rgb(42,41,169)"/><path d="M65.6892886416734,85.28096003676085L65.8475843076193,88.04236458881695L65.85069614612182,88.04867207654084zM65.23898736757127,77.6061009390091L59.760933585261256,66.39062146797784L59.895584111780614,68.88600490314309z" style="fill:rgb(247,158,158)"/><path d="M32.47931575529252,119.28272155527148L32.376061729970736,119.05780645829869L32.40904507775594,119.12965807559031z" style="fill:rgb(6,116,165)"/><path d="M68.77159144223975,93.97167102677989L66.22463185634825,94.46068105241838L69.15967397503535,100.37704801602462z" style="fill:rgb(247,158,158)"/><path d="M35.130428296905265,118.6750836309545L32.47589785112103,119.2752760068185L32.677815250477614,119.22962461368067z" style="fill:rgb(127,37,217)"/><path d="M68.77159144223975,93.97167102677989L65.85069614612182,88.04867207654084L66.22463185634825,94.46068105241838zM65.8475843076193,88.04236458881695L65.52187826217911,82.4571341368173L63.777506990895546,83.8446506767507z" style="fill:rgb(247,158,158)"/><path d="M31.14615697149922,77.75880238616655L44.865989292883455,104.30761862235605L44.28050350950464,102.82968287579973z" style="fill:rgb(243,180,133)"/><path d="M73.33752356714064,83.50242783578713L65.6892886416734,85.28096003676085L66.38868418799439,97.27374488735336z" style="fill:rgb(83,212,212)"/><path d="M65.85069614612182,88.04867207654084L65.8475843076193,88.04236458881695L66.22150483473864,94.45438040471058z" style="fill:rgb(247,158,158)"/><path d="M59.59733685168761,63.358802303646726L59.895584111780614,68.88600490314309L59.760933585261256,66.39062146797784z" style="fill:rgb(0,127,127)"/><path d="M66.22463185634825,94.46068105241838L69.32992413228523,103.18705966949427L69.15967397503535,100.37704801602462zM65.3842868878163,80.09770745505259L60.324974547107374,76.84359561764218L63.777506990895546,83.8446506767507zM65.3842868878163,80.09770745505259L59.895584111780614,68.88600490314309L60.324974547107374,76.84359561764218zM66.22150483473864,94.45438040471058L65.8475843076193,88.04236458881695L63.777506990895546,83.8446506767507z" style="fill:rgb(247,158,158)"/><path d="M33.41123544539662,116.46774195003971L24.294927418774165,99.69014199807634L31.968646314829993,117.68566647151809zM31.808285129031784,117.82105100096646L31.968646314829993,117.68566647151809L24.294927418774165,99.69014199807634z" style="fill:rgb(197,72,218)"/><path d="M65.85069614612182,88.04867207654084L66.22150483473864,94.45438040471058L66.22463185634825,94.46068105241838z" style="fill:rgb(247,158,158)"/><path d="M33.41123544539662,116.46774195003971L33.57715464249069,116.52908052979426L25.974533393324112,100.29396335184992z" style="fill:rgb(57,36,182)"/><path d="M66.38868418799439,97.27374488735336L69.33041325465467,103.19513272845835L69.32992413228523,103.18705966949427z" style="fill:rgb(247,158,158)"/><path d="M35.072283004220694,117.08177941217433L25.974533393324112,100.29396335184992L33.57715464249069,116.52908052979426z" style="fill:rgb(57,36,182)"/><path d="M31.808285129031784,117.82105100096646L22.65871780229484,101.06032577679811L32.40904507775594,119.12965807559031z" style="fill:rgb(241,184,128)"/><path d="M73.33752356714064,83.50242783578713L74.11981781686308,95.49878430866761L77.01805004476562,101.4342810813009z" style="fill:rgb(247,158,158)"/><path d="M66.38868418799439,97.27374488735336L69.32992413228523,103.18705966949427L77.01805004476562,101.4342810813009z" style="fill:rgb(127,37,217)"/><path d="M32.47589785112103,119.2752760068185L32.40904507775594,119.12965807559031L22.65871780229484,101.06032577679811z" style="fill:rgb(241,184,128)"/><path d="M69.79395184670597,110.84592651647996L35.13067569797117,118.68325130032296L62.48636696658338,112.49816929440637z" style="fill:rgb(97,119,251)"/><path d="M66.22463185634825,94.46068105241838L66.38868418799439,97.27374488735336L69.32992413228523,103.18705966949427z" style="fill:rgb(247,158,158)"/><path d="M59.59733685168761,63.358802303646726L60.324974547107374,76.84359561764218L59.895584111780614,68.88600490314309z" style="fill:rgb(0,127,127)"/><path d="M66.38602181860556,97.27552935490226L69.63642375026878,108.24589492832881L69.33041325465467,103.19513272845835z" style="fill:rgb(247,158,158)"/><path d="M63.99630592159089,109.52472928544164L65.73281653656456,110.14334522719726L65.72251386144622,110.13967061258907z" style="fill:rgb(71,194,220)"/><path d="M66.38868418799439,97.27374488735336L74.11981781686308,95.49878430866761L73.33752356714064,83.50242783578713z" style="fill:rgb(83,212,212)"/><path d="M66.38868418799439,97.27374488735336L66.38915551155605,97.28182684054802L69.33041325465467,103.19513272845835z" style="fill:rgb(247,158,158)"/><path d="M66.38602181860556,97.27552935490226L69.33041325465467,103.19513272845835L66.38915551155605,97.28182684054802z" style="fill:rgb(127,37,217)"/><path d="M32.873386070595394,74.71816114197985L46.12116956935684,99.62438898971227L33.061979688413864,74.51788349486927z" style="fill:rgb(212,85,213)"/><path d="M33.061979688413864,74.51788349486927L48.05247641363751,98.7503663714704L34.7811608911586,73.73701036440323zM34.7811608911586,73.73701036440323L48.05247641363751,98.7503663714704L35.04339340768853,73.61790561357742z" style="fill:rgb(158,48,222)"/><path d="M66.22150483473864,94.45438040471058L66.38868418799439,97.27374488735336L66.22463185634825,94.46068105241838z" style="fill:rgb(247,158,158)"/><path d="M31.635981453036436,76.0322044360841L46.12116956935684,99.62438898971227L32.873386070595394,74.71816114197985z" style="fill:rgb(212,85,213)"/><path d="M65.72251386144622,110.13967061258907L65.17966716759194,111.8809314191224L65.66828999086776,110.31360392963198z" style="fill:rgb(13,183,141)"/><path d="M70.003930546422,114.31166541924323L24.825685103421844,117.97993451584748L28.02875564205415,123.76637536309356z" style="fill:rgb(127,37,217)"/><path d="M35.04339340768853,73.61790561357742L50.02151205645596,98.7267332970367L36.78739178692966,73.57783041699814z" style="fill:rgb(96,32,206)"/><path d="M65.8237121262278,111.73531201077827L63.12912126747347,112.3445620820767L63.33408734063264,112.29822281666294z" style="fill:rgb(84,226,194)"/><path d="M36.78739178692966,73.57783041699814L50.02151205645596,98.7267332970367L37.05360951816851,73.57171211349385z" style="fill:rgb(96,32,206)"/><path d="M39.047099076746846,72.6604139413133L55.56596658450729,55.08236789491617L13.884979216067272,65.10568670871122z" style="fill:rgb(83,212,212)"/><path d="M77.01805004476562,101.4342810813009L74.11981781686308,95.49878430866761L66.38868418799439,97.27374488735336z" style="fill:rgb(127,37,217)"/><path d="M66.22150483473864,94.45438040471058L66.38915551155605,97.28182684054802L66.38868418799439,97.27374488735336zM66.22150483473864,94.45438040471058L66.38602181860556,97.27552935490226L66.38915551155605,97.28182684054802z" style="fill:rgb(247,158,158)"/><path d="M69.79395184670597,110.84592651647996L63.33408734063264,112.29822281666294L65.82417916628913,111.74349186050465z" style="fill:rgb(83,212,212)"/><path d="M31.635981453036436,76.0322044360841L31.21105085808752,77.53005783045337L44.28050350950464,102.82968287579973z" style="fill:rgb(243,133,180)"/><path d="M39.047099076746846,72.6604139413133L13.884979216067272,65.10568670871122L14.054197706975437,78.58739411681631z" style="fill:rgb(83,212,212)"/><path d="M37.05360951816851,73.57171211349385L51.503553342658414,99.56176710370063L38.357806705770045,74.28474439886439z" style="fill:rgb(42,41,169)"/><path d="M31.14615697149922,77.75880238616655L44.28050350950464,102.82968287579973L31.21105085808752,77.53005783045337z" style="fill:rgb(243,133,180)"/><path d="M66.22150483473864,94.45438040471058L63.777506990895546,83.8446506767507L61.7558745540317,85.45270603679855z" style="fill:rgb(247,158,158)"/><path d="M38.357806705770045,74.28474439886439L51.503553342658414,99.56176710370063L38.55699712507043,74.39365237308124z" style="fill:rgb(42,41,169)"/><path d="M66.38602181860556,97.27552935490226L66.68089308616004,102.33200284080014L69.63642375026878,108.24589492832881z" style="fill:rgb(247,158,158)"/><path d="M31.14615697149922,77.75880238616655L31.64980204153253,79.04113259183259L44.865989292883455,104.30761862235605z" style="fill:rgb(243,180,133)"/><path d="M59.59733685168761,63.358802303646726L55.56596658450729,55.08236789491617L56.25019519189334,68.58074797194905z" style="fill:rgb(247,158,158)"/><path d="M31.726736950580683,79.23701743215446L44.865989292883455,104.30761862235605L31.64980204153253,79.04113259183259z" style="fill:rgb(243,180,133)"/><path d="M31.808285129031784,117.82105100096646L24.294927418774165,99.69014199807634L22.65871780229484,101.06032577679811z" style="fill:rgb(197,72,218)"/><path d="M33.41123544539662,116.46774195003971L25.974533393324112,100.29396335184992L24.294927418774165,99.69014199807634z" style="fill:rgb(57,36,182)"/><path d="M69.63642375026878,108.24589492832881L66.83269333305428,104.93508428016646L69.79395184670597,110.84592651647996zM59.59733685168761,63.358802303646726L56.25019519189334,68.58074797194905L60.324974547107374,76.84359561764218z" style="fill:rgb(247,158,158)"/><path d="M32.47589785112103,119.2752760068185L22.65871780229484,101.06032577679811L23.324212863341955,102.51487366069914z" style="fill:rgb(241,184,128)"/><path d="M64.0104443456527,109.52977039571228L55.38372093634219,92.49724729675363L62.56950830200106,110.75400407859077z" style="fill:rgb(197,72,218)"/><path d="M63.777506990895546,83.8446506767507L60.324974547107374,76.84359561764218L60.67158147026482,83.26701776769505zM69.63642375026878,108.24589492832881L66.68089308616004,102.33200284080014L66.83269333305428,104.93508428016646z" style="fill:rgb(247,158,158)"/><path d="M62.40933069693789,110.89009126019586L62.56950830200106,110.75400407859077L55.38372093634219,92.49724729675363z" style="fill:rgb(197,72,218)"/><path d="M60.82929061016552,86.18973025501563L66.38602181860556,97.27552935490226L66.22150483473864,94.45438040471058z" style="fill:rgb(247,158,158)"/><path d="M64.0104443456527,109.52977039571228L64.18145854483245,109.59068808141262L57.116052281362805,93.09645788250228z" style="fill:rgb(57,36,182)"/><path d="M70.003930546422,114.31166541924323L56.897863011369516,110.7045663678509L24.825685103421844,117.97993451584748z" style="fill:rgb(127,37,217)"/><path d="M66.83269333305428,104.93508428016646L70.003930546422,114.31166541924323L69.79395184670597,110.84592651647996z" style="fill:rgb(247,158,158)"/><path d="M65.72251386144622,110.13967061258907L57.116052281362805,93.09645788250228L64.18145854483245,109.59068808141262z" style="fill:rgb(57,36,182)"/><path d="M62.40933069693789,110.89009126019586L53.74935264845429,93.87458077589986L63.05704273778033,112.19891001886015z" style="fill:rgb(241,184,128)"/><path d="M63.777506990895546,83.8446506767507L60.67158147026482,83.26701776769505L61.7558745540317,85.45270603679855z" style="fill:rgb(247,158,158)"/><path d="M63.12912126747347,112.3445620820767L63.05704273778033,112.19891001886015L53.74935264845429,93.87458077589986z" style="fill:rgb(241,184,128)"/><path d="M18.546993358653328,93.09534765377289L18.67584247255398,100.9749114341709L18.718419935714664,103.57866885574559z" style="fill:rgb(127,127,127)"/><path d="M31.047023315823072,74.55760116148554L14.054197706975437,78.58739411681631L14.134801574632968,85.0091395886822z" style="fill:rgb(83,212,212)"/><path d="M60.82929061016552,86.18973025501563L66.68089308616004,102.33200284080014L66.38602181860556,97.27552935490226zM60.82929061016552,86.18973025501563L66.22150483473864,94.45438040471058L61.7558745540317,85.45270603679855z" style="fill:rgb(247,158,158)"/><path d="M55.56596658450729,55.08236789491617L39.047099076746846,72.6604139413133L56.25019519189334,68.58074797194905z" style="fill:rgb(83,212,212)"/><path d="M66.83269333305428,104.93508428016646L67.03504380360953,108.40500455319713L70.003930546422,114.31166541924323z" style="fill:rgb(247,158,158)"/><path d="M33.59316986869008,73.9537961945826L31.047023315823072,74.55760116148554L31.103785782041204,76.59736753668649zM35.04339340768853,73.61790561357742L33.59316986869008,73.9537961945826L33.061979688413864,74.51788349486927zM35.04339340768853,73.61790561357742L35.005912838570495,73.61876509167448L33.59316986869008,73.9537961945826z" style="fill:rgb(83,212,212)"/><path d="M39.047099076746846,72.6604139413133L31.047023315823072,74.55760116148554L33.59316986869008,73.9537961945826z" style="fill:rgb(86,177,237)"/><path d="M56.897863011369516,110.7045663678509L70.003930546422,114.31166541924323L67.03504380360953,108.40500455319713z" style="fill:rgb(127,37,217)"/><path d="M33.59316986869008,73.9537961945826L31.635981453036436,76.0322044360841L32.873386070595394,74.71816114197985z" style="fill:rgb(221,44,149)"/><path d="M24.825685103421844,117.97993451584748L56.897863011369516,110.7045663678509L32.311729567086154,103.93786593456956z" style="fill:rgb(127,37,217)"/><path d="M37.05360951816851,73.57171211349385L35.005912838570495,73.61876509167448L35.04339340768853,73.61790561357742z" style="fill:rgb(74,130,243)"/><path d="M37.05360951816851,73.57171211349385L36.494143123738596,73.26583372851452L35.005912838570495,73.61876509167448z" style="fill:rgb(83,212,212)"/><path d="M37.05360951816851,73.57171211349385L35.04339340768853,73.61790561357742L36.78739178692966,73.57783041699814z" style="fill:rgb(105,248,161)"/><path d="M39.047099076746846,72.6604139413133L36.494143123738596,73.26583372851452L37.96348295263973,72.91739100939498z" style="fill:rgb(94,130,250)"/><path d="M37.8047765722926,73.9823889303282L37.96348295263973,72.91739100939498L36.494143123738596,73.26583372851452z" style="fill:rgb(83,212,212)"/><path d="M37.8047765722926,73.9823889303282L36.494143123738596,73.26583372851452L37.05360951816851,73.57171211349385z" style="fill:rgb(33,111,212)"/><path d="M38.215808309420865,73.54500589090168L39.047099076746846,72.6604139413133L37.96348295263973,72.91739100939498zM31.635981453036436,76.0322044360841L31.103785782041204,76.59736753668649L31.135339834180314,77.73126191722942zM37.8047765722926,73.9823889303282L38.215808309420865,73.54500589090168L37.96348295263973,72.91739100939498z" style="fill:rgb(83,212,212)"/><path d="M31.635981453036436,76.0322044360841L31.14615697149922,77.75880238616655L31.21105085808752,77.53005783045337z" style="fill:rgb(7,169,131)"/><path d="M31.635981453036436,76.0322044360841L31.135339834180314,77.73126191722942L31.14615697149922,77.75880238616655zM31.047023315823072,74.55760116148554L14.134801574632968,85.0091395886822L31.225834172186303,80.98316650120519z" style="fill:rgb(83,212,212)"/><path d="M24.825685103421844,117.97993451584748L32.311729567086154,103.93786593456956L18.775176337637618,107.04951685274955z" style="fill:rgb(127,37,217)"/><path d="M37.05360951816851,73.57171211349385L38.357806705770045,74.28474439886439L37.8047765722926,73.9823889303282z" style="fill:rgb(138,245,174)"/><path d="M39.047099076746846,72.6604139413133L38.215808309420865,73.54500589090168L38.55699712507043,74.39365237308124zM38.55699712507043,74.39365237308124L38.215808309420865,73.54500589090168L37.8047765722926,73.9823889303282z" style="fill:rgb(83,212,212)"/><path d="M61.097475728443406,91.1598162918667L66.83269333305428,104.93508428016646L66.68089308616004,102.33200284080014z" style="fill:rgb(247,158,158)"/><path d="M62.40933069693789,110.89009126019586L55.38372093634219,92.49724729675363L53.74935264845429,93.87458077589986z" style="fill:rgb(197,72,218)"/><path d="M39.047099076746846,72.6604139413133L38.55699712507043,74.39365237308124L39.07091166328108,75.6719173558109z" style="fill:rgb(83,212,212)"/><path d="M31.135339834180314,77.73126191722942L31.64980204153253,79.04113259183259L31.14615697149922,77.75880238616655z" style="fill:rgb(153,227,202)"/><path d="M64.0104443456527,109.52977039571228L57.116052281362805,93.09645788250228L55.38372093634219,92.49724729675363z" style="fill:rgb(57,36,182)"/><path d="M60.67158147026482,83.26701776769505L60.82929061016552,86.18973025501563L61.7558745540317,85.45270603679855z" style="fill:rgb(247,158,158)"/><path d="M31.135339834180314,77.73126191722942L31.168625539267115,78.92738321993724L31.726736950580683,79.23701743215446zM39.047099076746846,72.6604139413133L39.07091166328108,75.6719173558109L39.14941740144637,75.86718141947316z" style="fill:rgb(83,212,212)"/><path d="M31.135339834180314,77.73126191722942L31.726736950580683,79.23701743215446L31.64980204153253,79.04113259183259z" style="fill:rgb(3,112,155)"/><path d="M39.047099076746846,72.6604139413133L39.14941740144637,75.86718141947316L39.15839119696591,75.83490370393785z" style="fill:rgb(83,212,212)"/><path d="M60.324974547107374,76.84359561764218L56.576174108036824,75.01162291501282L60.67158147026482,83.26701776769505z" style="fill:rgb(247,158,158)"/><path d="M63.12912126747347,112.3445620820767L53.74935264845429,93.87458077589986L54.46873387192583,95.32897514164974z" style="fill:rgb(241,184,128)"/><path d="M32.311729567086154,103.93786593456956L56.897863011369516,110.7045663678509L67.03504380360953,108.40500455319713z" style="fill:rgb(127,37,217)"/><path d="M31.225834172186303,80.98316650120519L31.726736950580683,79.23701743215446L31.168625539267115,78.92738321993724zM31.225834172186303,80.98316650120519L31.92496056146317,79.34698808582465L31.726736950580683,79.23701743215446z" style="fill:rgb(83,212,212)"/><path d="M60.82929061016552,86.18973025501563L61.097475728443406,91.1598162918667L66.68089308616004,102.33200284080014z" style="fill:rgb(247,158,158)"/><path d="M31.225834172186303,80.98316650120519L32.476084759376235,79.65275636288266L31.92496056146317,79.34698808582465z" style="fill:rgb(83,212,212)"/><path d="M33.226489955701666,80.0690738647708L31.92496056146317,79.34698808582465L32.476084759376235,79.65275636288266z" style="fill:rgb(55,173,221)"/><path d="M60.324974547107374,76.84359561764218L56.25019519189334,68.58074797194905L56.576174108036824,75.01162291501282z" style="fill:rgb(247,158,158)"/><path d="M32.476084759376235,79.65275636288266L31.225834172186303,80.98316650120519L33.78676613595378,80.37990859556105z" style="fill:rgb(83,212,212)"/><path d="M61.238223565461524,93.76819689095686L67.03504380360953,108.40500455319713L66.83269333305428,104.93508428016646z" style="fill:rgb(247,158,158)"/><path d="M56.576174108036824,75.01162291501282L39.047099076746846,72.6604139413133L39.15839119696591,75.83490370393785zM33.78676613595378,80.37990859556105L34.97760509703994,80.03371081581363L33.226489955701666,80.0690738647708z" style="fill:rgb(83,212,212)"/><path d="M31.225834172186303,80.98316650120519L35.28261096039363,80.02755221505055L33.78676613595378,80.37990859556105z" style="fill:rgb(84,201,221)"/><path d="M38.18250087850243,79.344447133252L38.73160415330192,77.3697451657478L38.66779519434334,77.59920265787369z" style="fill:rgb(231,151,197)"/><path d="M33.78676613595378,80.37990859556105L35.244914365228915,80.0283117686662L34.97760509703994,80.03371081581363zM33.78676613595378,80.37990859556105L35.28261096039363,80.02755221505055L35.244914365228915,80.0283117686662zM38.18250087850243,79.344447133252L39.27242868185622,79.08770208379732L39.15839119696591,75.83490370393785zM56.576174108036824,75.01162291501282L56.25019519189334,68.58074797194905L39.047099076746846,72.6604139413133z" style="fill:rgb(83,212,212)"/><path d="M35.244914365228915,80.0283117686662L37.23816269001482,79.12364846862937L36.974367269812234,79.24337335604402z" style="fill:rgb(105,161,248)"/><path d="M35.244914365228915,80.0283117686662L35.28261096039363,80.02755221505055L36.70460828071203,79.69258263857674zM35.244914365228915,80.0283117686662L36.70460828071203,79.69258263857674L37.23816269001482,79.12364846862937zM36.70460828071203,79.69258263857674L38.18250087850243,79.344447133252L38.66779519434334,77.59920265787369zM14.134801574632968,85.0091395886822L14.310202501512334,98.9834123927961L31.225834172186303,80.98316650120519z" style="fill:rgb(83,212,212)"/><path d="M56.576174108036824,75.01162291501282L60.82929061016552,86.18973025501563L60.67158147026482,83.26701776769505zM61.097475728443406,91.1598162918667L61.238223565461524,93.76819689095686L66.83269333305428,104.93508428016646z" style="fill:rgb(247,158,158)"/><path d="M56.576174108036824,75.01162291501282L39.15839119696591,75.83490370393785L39.27242868185622,79.08770208379732z" style="fill:rgb(83,212,212)"/><path d="M31.225834172186303,80.98316650120519L56.576174108036824,75.01162291501282L39.27242868185622,79.08770208379732z" style="fill:rgb(86,236,178)"/><path d="M32.311729567086154,103.93786593456956L14.310202501512334,98.9834123927961L18.775176337637618,107.04951685274955zM32.311729567086154,103.93786593456956L67.03504380360953,108.40500455319713L61.42585273340409,97.24540027283663z" style="fill:rgb(127,37,217)"/><path d="M61.238223565461524,93.76819689095686L61.42585273340409,97.24540027283663L67.03504380360953,108.40500455319713z" style="fill:rgb(247,158,158)"/><path d="M60.82929061016552,86.18973025501563L61.42585273340409,97.24540027283663L61.238223565461524,93.76819689095686z" style="fill:rgb(0,127,127)"/><path d="M31.225834172186303,80.98316650120519L57.28566647865233,89.0084117320357L56.576174108036824,75.01162291501282z" style="fill:rgb(83,212,212)"/><path d="M56.576174108036824,75.01162291501282L57.28566647865233,89.0084117320357L60.82929061016552,86.18973025501563z" style="fill:rgb(247,158,158)"/><path d="M31.225834172186303,80.98316650120519L14.310202501512334,98.9834123927961L57.28566647865233,89.0084117320357z" style="fill:rgb(83,212,212)"/><path d="M60.82929061016552,86.18973025501563L57.28566647865233,89.0084117320357L61.42585273340409,97.24540027283663z" style="fill:rgb(247,158,158)"/><path d="M57.28566647865233,89.0084117320357L14.310202501512334,98.9834123927961L32.311729567086154,103.93786593456956zM57.28566647865233,89.0084117320357L32.311729567086154,103.93786593456956L61.42585273340409,97.24540027283663z" style="fill:rgb(127,37,217)"/></svg>
